<?xml version="1.0" encoding="UTF-8"?>
<svg version="1.1" xmlns="http://www.w3.org/2000/svg" width="1258" height="410">
<path d="M0 0 C0.33 0 0.66 0 1 0 C1 1.65 1 3.3 1 5 C218.47 5 435.94 5 660 5 C660 3.35 660 1.7 660 0 C664.44565219 4.15535773 667.93659277 8.76736437 671.5 13.6875 C672.11166016 14.52474609 672.72332031 15.36199219 673.35351562 16.22460938 C677.9614491 22.54094249 682.53538649 28.88213017 687.10351562 35.22729492 C691.03215729 40.67905718 695.00631677 46.09574433 699 51.5 C703.53751011 57.64016269 708.03966576 63.80354661 712.5 70 C719.25983749 79.38780773 726.12417344 88.69696495 733 98 C740.42121495 108.04094886 747.81171806 118.10066404 755.10791016 128.23291016 C761.33662403 136.87249604 767.66954014 145.4348494 774 154 C781.42121495 164.04094886 788.81171806 174.10066404 796.10791016 184.23291016 C802.33662403 192.87249604 808.66954014 201.4348494 815 210 C822.42121495 220.04094886 829.81171806 230.10066404 837.10791016 240.23291016 C843.33662403 248.87249604 849.66954014 257.4348494 856 266 C863.42121495 276.04094886 870.81171806 286.10066404 878.10791016 296.23291016 C884.33662403 304.87249604 890.66954014 313.4348494 897 322 C904.42121495 332.04094886 911.81171806 342.10066404 919.10791016 352.23291016 C924.7486104 360.05688718 930.47556102 367.81649052 936.20751953 375.57373047 C940.96926721 382.01914704 945.72347118 388.4701269 950.47265625 394.92480469 C951.44333488 396.24366152 952.41461975 397.56207255 953.38671875 398.87988281 C954.55178451 400.45989122 955.71355567 402.04232762 956.875 403.625 C957.79925781 404.88183594 957.79925781 404.88183594 958.7421875 406.1640625 C960 408 960 408 960 409 C544.86 409 129.72 409 -298 409 C-293.94657972 402.91986958 -289.85396439 396.97865631 -285.5 391.125 C-284.26169399 389.45184124 -283.02341347 387.77866362 -281.78515625 386.10546875 C-280.84373779 384.83582275 -280.84373779 384.83582275 -279.88330078 383.54052734 C-276.8957183 379.51035061 -273.91531845 375.47489495 -270.9375 371.4375 C-270.35806641 370.65197754 -269.77863281 369.86645508 -269.18164062 369.05712891 C-264.71294414 362.98943796 -260.2966486 356.88520272 -255.89428711 350.76928711 C-251.9660103 345.31892939 -247.99278712 339.90323765 -244 334.5 C-237.26446941 325.38251634 -230.62136363 316.20059231 -224 307 C-216.79877656 296.9936743 -209.55744101 287.02060494 -202.23071289 277.10571289 C-198.28592959 271.76164384 -194.38037592 266.39098455 -190.5 261 C-185.45992181 253.99784758 -180.35786615 247.04386744 -175.23046875 240.10546875 C-171.28584596 234.76142324 -167.38030944 229.39089219 -163.5 224 C-158.45992181 216.99784758 -153.35786615 210.04386744 -148.23046875 203.10546875 C-144.28584596 197.76142324 -140.38030944 192.39089219 -136.5 187 C-131.45992181 179.99784758 -126.35786615 173.04386744 -121.23046875 166.10546875 C-117.28584596 160.76142324 -113.38030944 155.39089219 -109.5 150 C-104.45992181 142.99784758 -99.35786615 136.04386744 -94.23046875 129.10546875 C-90.28584596 123.76142324 -86.38030944 118.39089219 -82.5 113 C-77.45992181 105.99784758 -72.35786615 99.04386744 -67.23046875 92.10546875 C-63.28584596 86.76142324 -59.38030944 81.39089219 -55.5 76 C-50.45992181 68.99784758 -45.35786615 62.04386744 -40.23046875 55.10546875 C-36.28584579 49.76142301 -32.38032455 44.39088158 -28.5 39 C-23.35190571 31.84816115 -18.14637955 24.74059783 -12.9074707 17.6550293 C-9.0098924 12.38209548 -5.15754471 7.08064384 -1.35546875 1.73828125 C-0.90816406 1.16464844 -0.46085937 0.59101563 0 0 Z M9 10 C12.65818574 12.92654859 15.85005471 15.20520178 19.84765625 17.51171875 C20.40757263 17.83681931 20.96748901 18.16191986 21.54437256 18.49687195 C22.75094097 19.19727166 23.95848188 19.89599827 25.16690063 20.59320068 C28.44521967 22.48572204 31.71496493 24.39292187 34.984375 26.30078125 C35.99217766 26.88865417 35.99217766 26.88865417 37.02033997 27.48840332 C43.66542234 31.37331145 50.24315305 35.36346998 56.8125 39.375 C66.83181547 45.49090786 76.89803705 51.52161156 87 57.5 C97.11588975 63.48878382 107.20641171 69.51565199 117.25 75.625 C117.8217395 75.97274475 118.393479 76.3204895 118.98254395 76.67877197 C123.55961348 79.4635571 128.13411982 82.25254205 132.70849609 85.04174805 C136.72111147 87.48817121 140.73484141 89.93275294 144.75 92.375 C145.60612885 92.89587692 145.60612885 92.89587692 146.47955322 93.42727661 C157.32030127 100.01867557 168.227887 106.49503491 179.15625 112.93994141 C185.71031278 116.81213343 192.22324783 120.73473698 198.6640625 124.79296875 C199.26948883 125.17284439 199.87491516 125.55272003 200.49868774 125.94410706 C203.35344794 127.73603623 206.1986614 129.53921671 209.03173828 131.36547852 C210.52423096 132.30605103 210.52423096 132.30605103 212.046875 133.265625 C212.91151367 133.82024414 213.77615234 134.37486328 214.66699219 134.94628906 C216.90051222 136.17821802 216.90051222 136.17821802 219.14086914 135.84423828 C222.43341778 134.34907962 224.44484277 131.36961089 226.6875 128.625 C227.48305298 127.67379272 227.48305298 127.67379272 228.29467773 126.70336914 C229.87340126 124.81047178 231.43876028 122.90732986 233 121 C233.79148437 120.03707031 234.58296875 119.07414062 235.3984375 118.08203125 C236.84317886 116.31652601 238.28458084 114.5482829 239.72265625 112.77734375 C242.28204054 109.65603633 244.88593791 106.5754997 247.5 103.5 C250.87283589 99.53096457 254.21176645 95.53982979 257.5 91.5 C261.24787798 86.8954642 265.06983444 82.35980809 268.9140625 77.8359375 C271.81244823 74.4194046 274.671551 70.97495162 277.5 67.5 C281.24787798 62.8954642 285.06983444 58.35980809 288.9140625 53.8359375 C291.81244823 50.4194046 294.671551 46.97495162 297.5 43.5 C300.78824635 39.46015448 304.12766641 35.46947514 307.5 31.5 C311.03848814 27.32704997 314.56926075 23.14845133 318.0625 18.9375 C318.77535156 18.08027344 319.48820312 17.22304688 320.22265625 16.33984375 C322.23184103 13.84448249 322.23184103 13.84448249 324 10 C220.05 10 116.1 10 9 10 Z M321.95872879 20.47457695 C321.63456183 21.07204475 321.31039487 21.66951255 320.97640467 22.28508544 C319.49722218 24.88305702 317.57596403 27.05886059 315.625 29.3125 C314.55765625 30.62541016 314.55765625 30.62541016 313.46875 31.96484375 C305.67975042 41.54087646 297.82942579 51.06505266 289.83251953 60.46826172 C286.26971596 64.66328182 282.78674425 68.91914278 279.3125 73.1875 C276.27632634 76.88014364 273.1815003 80.52121788 270.0859375 84.1640625 C267.18755177 87.5805954 264.328449 91.02504838 261.5 94.5 C257.75212202 99.1045358 253.93016556 103.64019191 250.0859375 108.1640625 C246.44968181 112.45037507 242.88638245 116.79213757 239.34375 121.15625 C237.59278318 123.28075641 235.82523174 125.38112419 234.03125 127.46875 C233.52787109 128.05591797 233.02449219 128.64308594 232.50585938 129.24804688 C231.52145942 130.39332153 230.53332297 131.53539788 229.54101562 132.67382812 C227.44222467 135.11787474 226.0300731 136.90978071 225 140 C232.04615064 144.87920092 239.36974477 149.25517503 246.7512207 153.59912109 C250.32342944 155.70191363 253.89039747 157.81355038 257.45703125 159.92578125 C258.18044708 160.35412262 258.90386292 160.78246399 259.64920044 161.2237854 C266.46422139 165.26467728 273.23611967 169.37425284 280 173.5 C289.95778133 179.57233992 299.96304959 185.55947002 310 191.5 C320.61130098 197.78046857 331.18099227 204.122925 341.70898438 210.54199219 C351.09842764 216.26452061 360.53746233 221.89926307 370 227.5 C379.59666212 233.18061807 389.17101042 238.89411765 398.69750977 244.69174194 C400.41776395 245.73799658 402.13936095 246.78200699 403.86132812 247.82543945 C409.04938415 250.97292497 414.22740307 254.13385658 419.37306213 257.35012817 C421.12704161 258.44418821 422.8850649 259.53139723 424.64477539 260.61621094 C426.83305334 261.96710595 429.01367942 263.33049922 431.18530273 264.70800781 C432.15540283 265.30323242 433.12550293 265.89845703 434.125 266.51171875 C434.97320313 267.04240967 435.82140625 267.57310059 436.6953125 268.11987305 C438.9557364 269.25524849 438.9557364 269.25524849 441.13598633 268.33496094 C444.13132472 266.18977294 446.35368875 263.3798635 448.6875 260.5625 C449.21786865 259.93287354 449.7482373 259.30324707 450.29467773 258.65454102 C454.14891399 254.06583248 457.94508783 249.42928605 461.72265625 244.77734375 C464.28204054 241.65603633 466.88593791 238.5754997 469.5 235.5 C472.87283589 231.53096457 476.21176645 227.53982979 479.5 223.5 C483.24787798 218.8954642 487.06983444 214.35980809 490.9140625 209.8359375 C493.81244823 206.4194046 496.671551 202.97495162 499.5 199.5 C503.24787798 194.8954642 507.06983444 190.35980809 510.9140625 185.8359375 C513.81244823 182.4194046 516.671551 178.97495162 519.5 175.5 C523.24787798 170.8954642 527.06983444 166.35980809 530.9140625 161.8359375 C533.81244823 158.4194046 536.671551 154.97495162 539.5 151.5 C543.24787798 146.8954642 547.06983444 142.35980809 550.9140625 137.8359375 C553.81244823 134.4194046 556.671551 130.97495162 559.5 127.5 C563.24787798 122.8954642 567.06983444 118.35980809 570.9140625 113.8359375 C573.81244823 110.4194046 576.671551 106.97495162 579.5 103.5 C583.24787798 98.8954642 587.06983444 94.35980809 590.9140625 89.8359375 C593.81244823 86.4194046 596.671551 82.97495162 599.5 79.5 C603.24787798 74.8954642 607.06983444 70.35980809 610.9140625 65.8359375 C613.81244823 62.4194046 616.671551 58.97495162 619.5 55.5 C623.24787798 50.8954642 627.06983444 46.35980809 630.9140625 41.8359375 C634.55031819 37.54962493 638.11361755 33.20786243 641.65625 28.84375 C643.40721682 26.71924359 645.17476826 24.61887581 646.96875 22.53125 C647.47212891 21.94408203 647.97550781 21.35691406 648.49414062 20.75195312 C649.47854058 19.60667847 650.46667703 18.46460212 651.45898438 17.32617188 C653.55777533 14.88212526 654.9699269 13.09021929 656 10 C614.92885561 9.67939492 573.85787462 9.43278421 532.78572838 9.28508539 C527.93429865 9.26757598 523.08287137 9.24945542 518.23144531 9.23095703 C517.26563385 9.22728469 516.29982239 9.22361234 515.30474392 9.21982871 C499.67640605 9.15894773 484.04879084 9.04858588 468.42088136 8.91986085 C452.37921248 8.78883204 436.33792145 8.71115492 420.29573941 8.68276107 C410.400294 8.66357225 400.50689118 8.60302623 390.61207476 8.48916946 C383.82215888 8.4150308 377.03329521 8.3928274 370.24300417 8.41098072 C366.32730276 8.41992994 362.41516301 8.40645247 358.50009918 8.33112335 C337.13768831 7.32025676 337.13768831 7.32025676 321.95872879 20.47457695 Z M1 13 C1 140.05 1 267.1 1 398 C5.1225167 393.89104865 5.1225167 393.89104865 9.015625 389.6171875 C9.53979004 389.01310059 10.06395508 388.40901367 10.60400391 387.78662109 C11.14718262 387.15578613 11.69036133 386.52495117 12.25 385.875 C12.82282715 385.21193848 13.3956543 384.54887695 13.98583984 383.86572266 C17.98644009 379.21874212 21.89796818 374.50690375 25.7578125 369.7421875 C28.30253683 366.62999852 30.89618225 363.56273503 33.5 360.5 C36.87288602 356.53100848 40.21176774 352.5398282 43.5 348.5 C47.24787798 343.8954642 51.06983444 339.35980809 54.9140625 334.8359375 C57.81244823 331.4194046 60.671551 327.97495162 63.5 324.5 C67.24787798 319.8954642 71.06983444 315.35980809 74.9140625 310.8359375 C77.81244823 307.4194046 80.671551 303.97495162 83.5 300.5 C87.24787798 295.8954642 91.06983444 291.35980809 94.9140625 286.8359375 C98.55859407 282.53986956 102.1278734 278.18631659 105.68359375 273.81640625 C108.27787266 270.66214808 110.91606265 267.5479702 113.5625 264.4375 C116.76739191 260.66911061 119.92687694 256.87753972 123 253 C126.52883403 248.54746299 130.18229329 244.21314021 133.86328125 239.88671875 C136.78004513 236.45428391 139.65693426 232.99407185 142.5 229.5 C146.24787798 224.8954642 150.06983444 220.35980809 153.9140625 215.8359375 C156.81244823 212.4194046 159.671551 208.97495162 162.5 205.5 C166.24787798 200.8954642 170.06983444 196.35980809 173.9140625 191.8359375 C176.81244823 188.4194046 179.671551 184.97495162 182.5 181.5 C185.78823868 177.4601639 189.12736481 173.46921119 192.5 169.5 C200.16868942 160.46917043 207.62114898 151.26880196 215 142 C212.03581182 138.78306185 209.03722408 136.66215028 205.25 134.48828125 C204.68866867 134.16318069 204.12733734 133.83808014 203.54899597 133.50312805 C202.33701567 132.801744 201.12347346 132.10305332 199.90853882 131.40679932 C196.61457936 129.51814107 193.33318468 127.60786758 190.05078125 125.69921875 C189.03834099 125.11134583 189.03834099 125.11134583 188.00544739 124.51159668 C181.34555132 120.63650873 174.76237431 116.64250559 168.1875 112.625 C158.1686301 106.5083867 148.10216771 100.47800967 138 94.5 C127.38856002 88.21976973 116.81900445 81.877073 106.29101562 75.45800781 C96.90157441 69.73548064 87.46261639 64.10060119 78 58.5 C67.96299471 52.55943754 57.95897154 46.5704947 48 40.5 C38.19605021 34.52708613 28.36263273 28.60620945 18.49633789 22.73681641 C17.04634973 21.87411803 15.59680144 21.01067988 14.14770508 20.14648438 C12.1375987 18.948201 10.12574854 17.75290672 8.11328125 16.55859375 C7.50744705 16.19700668 6.90161285 15.83541962 6.27742004 15.46287537 C3.800728 13.73563947 3.800728 13.73563947 1 13 Z M659 16 C657.12990875 18.07956576 655.30618858 20.1783637 653.5 22.3125 C652.68631958 23.26829956 652.68631958 23.26829956 651.85620117 24.2434082 C647.16467964 29.76996112 642.56410934 35.36787238 638 41 C632.76188678 47.44618257 627.46458777 53.83424852 622.08642578 60.16357422 C619.18780161 63.58020732 616.32859421 67.02486997 613.5 70.5 C609.75212202 75.1045358 605.93016556 79.64019191 602.0859375 84.1640625 C599.18755177 87.5805954 596.328449 91.02504838 593.5 94.5 C589.75212202 99.1045358 585.93016556 103.64019191 582.0859375 108.1640625 C579.18755177 111.5805954 576.328449 115.02504838 573.5 118.5 C569.75212202 123.1045358 565.93016556 127.64019191 562.0859375 132.1640625 C559.18755177 135.5805954 556.328449 139.02504838 553.5 142.5 C549.75212202 147.1045358 545.93016556 151.64019191 542.0859375 156.1640625 C539.18755177 159.5805954 536.328449 163.02504838 533.5 166.5 C529.75212202 171.1045358 525.93016556 175.64019191 522.0859375 180.1640625 C519.18755177 183.5805954 516.328449 187.02504838 513.5 190.5 C509.75212202 195.1045358 505.93016556 199.64019191 502.0859375 204.1640625 C499.18755177 207.5805954 496.328449 211.02504838 493.5 214.5 C489.75212202 219.1045358 485.93016556 223.64019191 482.0859375 228.1640625 C479.18755177 231.5805954 476.328449 235.02504838 473.5 238.5 C470.21175492 242.53984395 466.8723839 246.53056888 463.5 250.5 C459.97993827 254.65022662 456.47058679 258.80825231 453 263 C452.29875 263.845625 451.5975 264.69125 450.875 265.5625 C449.03660707 267.95241081 447.52852673 270.40495885 446 273 C460.61497261 281.92156886 475.26441668 290.77895419 490 299.5 C500.61068516 305.78001763 511.18022611 312.12131606 521.70697021 318.54098511 C531.13619914 324.28919783 540.61965675 329.94118206 550.125 335.5625 C560.86566739 341.91483757 571.52949224 348.37191233 582.13769531 354.94384766 C591.32654998 360.62097526 600.60416283 366.14054905 609.90258789 371.63577271 C617.28507316 375.99880902 624.65502095 380.37899223 631.9765625 384.84375 C632.61584686 385.23345474 633.25513123 385.62315948 633.91378784 386.02467346 C636.9351091 387.86803262 639.95348459 389.71602732 642.96826172 391.57006836 C644.04092285 392.22628174 645.11358398 392.88249512 646.21875 393.55859375 C647.14623047 394.12892334 648.07371094 394.69925293 649.02929688 395.28686523 C652.60100871 397.34658762 656.31222758 399.15611379 660 401 C660 273.95 660 146.9 660 16 C659.67 16 659.34 16 659 16 Z M-5 17 C-5.85260006 18.0617682 -6.66003479 19.15981632 -7.44921875 20.26953125 C-8.21588867 21.34074219 -8.21588867 21.34074219 -8.99804688 22.43359375 C-9.55556641 23.21863281 -10.11308594 24.00367188 -10.6875 24.8125 C-11.87807215 26.47585775 -13.06950624 28.13859883 -14.26171875 29.80078125 C-14.87966309 30.66268066 -15.49760742 31.52458008 -16.13427734 32.41259766 C-19.05697694 36.46582591 -22.02765899 40.48310891 -25 44.5 C-29.53792918 50.6398464 -34.03979557 56.80346295 -38.5 63 C-43.54007819 70.00215242 -48.64213385 76.95613256 -53.76953125 83.89453125 C-57.71415404 89.23857676 -61.61969056 94.60910781 -65.5 100 C-70.54007819 107.00215242 -75.64213385 113.95613256 -80.76953125 120.89453125 C-84.71415404 126.23857676 -88.61969056 131.60910781 -92.5 137 C-97.54007819 144.00215242 -102.64213385 150.95613256 -107.76953125 157.89453125 C-111.71415404 163.23857676 -115.61969056 168.60910781 -119.5 174 C-123.96020953 180.19654414 -128.46259635 186.35976023 -133 192.5 C-139.73553059 201.61748366 -146.37863637 210.79940769 -153 220 C-160.20122344 230.0063257 -167.44255899 239.97939506 -174.76928711 249.89428711 C-178.71407041 255.23835616 -182.61962408 260.60901545 -186.5 266 C-191.54007819 273.00215242 -196.64213385 279.95613256 -201.76953125 286.89453125 C-205.71415404 292.23857676 -209.61969056 297.60910781 -213.5 303 C-218.54007819 310.00215242 -223.64213385 316.95613256 -228.76953125 323.89453125 C-232.71415404 329.23857676 -236.61969056 334.60910781 -240.5 340 C-245.53853453 347.00000782 -250.63841095 353.95232331 -255.76513672 360.88793945 C-260.29724936 367.02661743 -264.76822199 373.20736839 -269.2175293 379.40625 C-271.93040468 383.17457404 -274.67505156 386.91320156 -277.48046875 390.61328125 C-278.03976074 391.35102783 -278.59905273 392.08877441 -279.17529297 392.84887695 C-280.2440818 394.25315646 -281.31714245 395.65419785 -282.39501953 397.05151367 C-285.07931328 400.1733471 -285.07931328 400.1733471 -286 404 C-192.94 404 -99.88 404 -4 404 C-4 276.29 -4 148.58 -4 17 C-4.33 17 -4.66 17 -5 17 Z M665 17 C665 144.71 665 272.42 665 404 C758.39 404 851.78 404 948 404 C946.20040562 399.50101406 944.64745235 397.01849599 941.6875 393.3125 C937.57592227 388.09046299 933.62306921 382.77618706 929.75 377.375 C925.20943092 371.05099591 920.62852675 364.75993483 916 358.5 C911.46231486 352.35996829 906.96033255 346.19645104 902.5 340 C895.74016251 330.61219227 888.87582656 321.30303505 882 312 C874.57878505 301.95905114 867.18828194 291.89933596 859.89208984 281.76708984 C853.66337597 273.12750396 847.33045986 264.5651506 841 256 C833.57878505 245.95905114 826.18828194 235.89933596 818.89208984 225.76708984 C812.66337597 217.12750396 806.33045986 208.5651506 800 200 C792.57878505 189.95905114 785.18828194 179.89933596 777.89208984 169.76708984 C771.66337597 161.12750396 765.33045986 152.5651506 759 144 C751.57878505 133.95905114 744.18828194 123.89933596 736.89208984 113.76708984 C730.66337597 105.12750396 724.33045986 96.5651506 718 88 C710.58096652 77.96200269 703.19194426 67.9057192 695.89868164 57.77587891 C690.78073342 50.67611333 685.58936073 43.63158305 680.38671875 36.59375 C678.1466689 33.56169855 675.92046064 30.52028695 673.70703125 27.46875 C673.1960791 26.76580811 672.68512695 26.06286621 672.15869141 25.33862305 C671.19867718 24.0164926 670.24119871 22.6925161 669.28662109 21.36645508 C668.21521312 19.89311523 667.11124052 18.44353381 666 17 C665.67 17 665.34 17 665 17 Z M218.15234375 146.80078125 C213.44551136 152.1385118 208.86079093 157.55086974 204.3828125 163.08203125 C201.79244152 166.25417407 199.15317133 169.38043294 196.5 172.5 C193.12703063 176.46891888 189.78823022 180.46017431 186.5 184.5 C182.75212202 189.1045358 178.93016556 193.64019191 175.0859375 198.1640625 C172.18755177 201.5805954 169.328449 205.02504838 166.5 208.5 C162.75212202 213.1045358 158.93016556 217.64019191 155.0859375 222.1640625 C152.18755177 225.5805954 149.328449 229.02504838 146.5 232.5 C142.75212202 237.1045358 138.93016556 241.64019191 135.0859375 246.1640625 C132.18755177 249.5805954 129.328449 253.02504838 126.5 256.5 C122.75212202 261.1045358 118.93016556 265.64019191 115.0859375 270.1640625 C111.43719215 274.46509753 107.86355273 278.82346097 104.3046875 283.19921875 C101.77966925 286.26775787 99.20515231 289.29039812 96.625 292.3125 C92.84207508 296.74851603 89.19467263 301.26600643 85.625 305.875 C81.16948329 311.62027155 76.48856595 317.13095441 71.70019531 322.60058594 C67.78368043 327.07760385 63.98672933 331.63542937 60.2421875 336.2578125 C57.69746317 339.37000148 55.10381775 342.43726497 52.5 345.5 C49.12711398 349.46899152 45.78823226 353.4601718 42.5 357.5 C38.75212202 362.1045358 34.93016556 366.64019191 31.0859375 371.1640625 C27.44849948 375.45176877 23.88435171 379.79521968 20.33984375 384.16015625 C18.60097481 386.27060319 16.84649921 388.35845139 15.06640625 390.43359375 C14.56753906 391.01625 14.06867188 391.59890625 13.5546875 392.19921875 C12.58297854 393.33118337 11.60788058 394.46025039 10.62890625 395.5859375 C8.31931821 398.27821891 6.5061899 400.79843485 5 404 C46.07114439 404.32060508 87.14212538 404.56721579 128.21427162 404.71491461 C133.06570135 404.73242402 137.91712863 404.75054458 142.76855469 404.76904297 C143.73436615 404.77271531 144.70017761 404.77638766 145.69525608 404.78017129 C161.32359395 404.84105227 176.95120916 404.95141412 192.57911864 405.08013915 C208.62078752 405.21116796 224.66207855 405.28884508 240.70426059 405.31723893 C250.599706 405.33642775 260.49310882 405.39697377 270.38792524 405.51083054 C277.17784112 405.5849692 283.96670479 405.6071726 290.75699583 405.58901928 C294.67269724 405.58007006 298.58483699 405.59354753 302.49990082 405.66887665 C318.89921806 406.75891771 318.89921806 406.75891771 333.41707611 400.97195816 C336.1185441 398.16129457 338.15243251 395.15301967 340.00813818 391.73551393 C341.54608839 389.0444798 343.54755454 386.78081123 345.5625 384.4375 C346.27535156 383.55964844 346.98820312 382.68179688 347.72265625 381.77734375 C350.28204054 378.65603633 352.88593791 375.5754997 355.5 372.5 C358.87283589 368.53096457 362.21176645 364.53982979 365.5 360.5 C369.24787798 355.8954642 373.06983444 351.35980809 376.9140625 346.8359375 C379.81244823 343.4194046 382.671551 339.97495162 385.5 336.5 C389.24787798 331.8954642 393.06983444 327.35980809 396.9140625 322.8359375 C399.81244823 319.4194046 402.671551 315.97495162 405.5 312.5 C409.24426355 307.89990478 413.06220874 303.36833905 416.90307617 298.84912109 C420.65250539 294.4298922 424.32554442 289.95160191 427.984375 285.45703125 C430.60678793 282.26033022 433.29212706 279.12446878 436 276 C434.49624493 271.89869643 432.17027046 270.60458842 428.4453125 268.48828125 C427.88115128 268.16318069 427.31699005 267.83808014 426.73573303 267.50312805 C425.51291113 266.79978306 424.28735384 266.10117709 423.05941772 265.40679932 C419.73428733 263.52577441 416.42950543 261.60944222 413.12109375 259.69921875 C412.4399501 259.30730347 411.75880646 258.91538818 411.05702209 258.51159668 C404.36753904 254.65589535 397.77357483 250.6545692 391.1875 246.625 C381.1695054 240.50696546 371.10192794 234.47836772 361 228.5 C350.88411025 222.51121618 340.79358829 216.48434801 330.75 210.375 C329.89239075 209.85338287 329.89239075 209.85338287 329.01745605 209.32122803 C324.44038652 206.5364429 319.86588018 203.74745795 315.29150391 200.95825195 C311.27888859 198.51182882 307.26521976 196.06714645 303.25 193.625 C302.67858276 193.27741638 302.10716553 192.92983276 301.51843262 192.57171631 C291.38356144 186.41100436 281.19209639 180.34820124 270.98526001 174.30764771 C259.92322208 167.75982126 248.91481533 161.12814847 237.94335938 154.4296875 C228.11069723 146.89884317 228.11069723 146.89884317 218.15234375 146.80078125 Z M439.60888672 279.20239258 C438.90143311 280.04000122 438.90143311 280.04000122 438.1796875 280.89453125 C437.64891602 281.51489258 437.11814453 282.13525391 436.57128906 282.77441406 C436.01151367 283.44698242 435.45173828 284.11955078 434.875 284.8125 C434.00439941 285.83875488 434.00439941 285.83875488 433.11621094 286.88574219 C431.40015705 288.91518721 429.69743313 290.95496789 428 293 C427.16210938 294.00933594 426.32421875 295.01867187 425.4609375 296.05859375 C423.29460593 298.69570056 421.14457959 301.34518586 419 304 C413.76296175 310.44703987 408.46457091 316.83426836 403.08642578 323.16357422 C400.18780161 326.58020732 397.32859421 330.02486997 394.5 333.5 C390.75212202 338.1045358 386.93016556 342.64019191 383.0859375 347.1640625 C380.18755177 350.5805954 377.328449 354.02504838 374.5 357.5 C370.75212202 362.1045358 366.93016556 366.64019191 363.0859375 371.1640625 C359.44849948 375.45176877 355.88435171 379.79521968 352.33984375 384.16015625 C350.60097481 386.27060319 348.84649921 388.35845139 347.06640625 390.43359375 C346.31810547 391.30757812 346.31810547 391.30757812 345.5546875 392.19921875 C344.58297854 393.33118337 343.60788058 394.46025039 342.62890625 395.5859375 C340.26219745 398.34480445 338.64540332 400.70919336 337 404 C440.95 404 544.9 404 652 404 C648.16594483 400.93275586 644.68910326 398.51164345 640.49609375 396.05078125 C639.86945328 395.68119797 639.24281281 395.31161469 638.59718323 394.93083191 C637.24925332 394.13618991 635.90033964 393.34321473 634.55053711 392.55175781 C630.92325986 390.42442571 627.30367002 388.28408678 623.68359375 386.14453125 C622.94781097 385.71000641 622.2120282 385.27548157 621.45394897 384.82778931 C614.60081824 380.77546131 607.79603283 376.64730745 601 372.5 C591.04253617 366.42714818 581.0369422 360.44052512 571 354.5 C560.38869902 348.21953143 549.81900773 341.877075 539.29101562 335.45800781 C529.90156978 329.73547782 520.46243641 324.10091129 511 318.5 C500.77960691 312.44924117 490.58641696 306.35746257 480.4375 300.1875 C479.86734161 299.84123566 479.29718323 299.49497131 478.70974731 299.13821411 C472.54177587 295.39175806 466.38689336 291.62528312 460.25 287.828125 C459.18467041 287.17175049 458.11934082 286.51537598 457.02172852 285.83911133 C455.01606355 284.60249893 453.0137467 283.36043396 451.01538086 282.11206055 C450.13245361 281.568479 449.24952637 281.02489746 448.33984375 280.46484375 C447.18536743 279.74735962 447.18536743 279.74735962 446.00756836 279.01538086 C443.50851654 277.75141923 441.84426731 277.27026737 439.60888672 279.20239258 Z " fill="#000000" transform="translate(298,1)"/>
</svg>
