<?xml version="1.0" encoding="UTF-8"?>
<svg version="1.1" xmlns="http://www.w3.org/2000/svg" width="1162" height="525">
<path d="M0 0 C1.20960325 0.24985751 2.4192065 0.49971502 3.6654644 0.75714397 C7.00066703 1.44771033 10.33424616 2.14534036 13.66732311 2.84604836 C17.24814135 3.597012 20.830875 4.33872979 24.41339111 5.08154297 C30.59928307 6.36544203 36.78395592 7.65507856 42.96783447 8.94863892 C52.00163241 10.83830879 61.03730813 12.71887107 70.07347369 14.59718263 C84.47800512 17.59154361 98.88124918 20.59204339 113.28369141 23.59643555 C130.13249599 27.11099513 146.9835067 30.61482775 163.83605719 34.11137795 C167.10597839 34.78982254 170.37587885 35.46836706 173.64578247 36.14689636 C177.53778771 36.9545102 181.42979393 37.76211937 185.32180977 38.56968212 C198.506811 41.3056656 211.69100031 44.04555208 224.8751564 46.78560448 C250.49686361 52.11051506 276.11946184 57.43112384 301.74267578 62.7487793 C302.57248498 62.92099235 303.40229418 63.0932054 304.25724912 63.27063704 C314.41029647 65.37772401 324.56336638 67.48470226 334.71644324 69.59164703 C350.60413194 72.88863173 366.49177738 76.18582483 382.37939453 79.4831543 C383.19863553 79.65317978 384.01787652 79.82320527 384.86194301 79.99838305 C422.16925332 87.7411812 459.47565564 95.48834966 496.78173828 103.23706055 C497.85344206 103.45965986 497.85344206 103.45965986 498.94679642 103.68675613 C516.57932171 107.34914255 534.21180495 111.01173141 551.84423828 114.67456055 C552.72661384 117.71026532 552.96789995 120.40851848 552.9644928 123.56526375 C552.96586715 124.5543121 552.9672415 125.54336045 552.96865749 126.56237996 C552.96506253 127.64661177 552.96146757 128.73084358 552.95776367 129.84793091 C552.95791253 131.00149924 552.95806139 132.15506757 552.95821476 133.34359252 C552.95763984 136.54595487 552.95257319 139.74827429 552.94564486 142.95062804 C552.93927451 146.4039322 552.93870202 149.85723774 552.93746948 153.31054688 C552.93458189 159.29423746 552.92814123 165.27791572 552.91940308 171.26160049 C552.90685847 179.91520193 552.9007746 188.56879878 552.89646971 197.2224078 C552.88940126 211.26489333 552.87859758 225.30737311 552.86474609 239.34985352 C552.86391828 240.19042025 552.86309047 241.03098699 552.86223757 241.89702545 C552.8563363 247.86453725 552.85030202 253.83204891 552.84423828 259.79956055 C552.83730923 266.6197102 552.83044229 273.4398599 552.82373047 280.26000977 C552.82290234 281.10016082 552.82207422 281.94031187 552.82122099 282.80592205 C552.80755076 296.79787021 552.79778354 310.78981847 552.79082012 324.78177154 C552.78633137 333.41754132 552.77827581 342.05329407 552.76567531 350.6890559 C552.75727021 356.60120062 552.75236361 362.51334141 552.7502501 368.42549171 C552.74890082 371.84037637 552.74586494 375.25523901 552.73849106 378.67011642 C552.73133133 382.3651441 552.73023478 386.0601241 552.73071289 389.75515747 C552.72711793 390.84385073 552.72352297 391.93254399 552.71981907 393.05422795 C552.72119342 394.0380608 552.72256777 395.02189366 552.72398376 396.03553963 C552.72306197 396.88926096 552.72214018 397.74298229 552.72119045 398.62257397 C552.71332514 400.74012873 552.71332514 400.74012873 553.84423828 402.67456055 C553.21281921 402.79216736 552.58140015 402.90977417 551.93084717 403.03094482 C524.69718366 408.13721966 497.5970085 413.8970272 470.48046392 419.58535421 C462.44101585 421.27165063 454.40081392 422.95434304 446.3605957 424.63696289 C444.83649131 424.95593323 443.3123872 425.27490487 441.78828335 425.59387779 C439.47101269 426.07884902 437.15374153 426.56381784 434.83646744 427.04877269 C430.09539149 428.04099894 425.35436956 429.03348288 420.61338991 430.02616918 C386.01008369 437.27155196 351.40134565 444.49083662 316.79202342 451.70741862 C308.27099738 453.48420743 299.75005681 455.26140595 291.22912455 457.03864443 C260.33236016 463.48287082 229.43535976 469.92596496 198.53811932 476.36790848 C184.0123223 479.39648537 169.48659986 482.42541977 154.96091938 485.45455551 C145.593512 487.40798257 136.22608388 489.36130982 126.85844213 491.3136127 C122.85548737 492.14791227 118.85263584 492.98270088 114.85000515 493.81855392 C107.80683924 495.28900449 100.76323262 496.75697653 93.71607155 498.2081778 C89.83737402 499.00711997 85.95929114 499.8090123 82.08154297 500.61254883 C81.31149276 500.77208558 80.54144255 500.93162232 79.74805748 501.09599352 C68.65441581 503.40037348 57.59620712 505.83993548 46.54946709 508.35916615 C40.11637057 509.82557349 33.67586551 511.25819856 27.23366559 512.68402165 C22.83134498 513.66111371 18.43506617 514.6564506 14.04783249 515.69935799 C-5.50126547 520.3362085 -21.32358501 523.14608415 -41.11069489 517.50802422 C-46.28992156 516.09042076 -51.55653391 515.11833368 -56.8215332 514.07617188 C-59.00529566 513.62282727 -61.18841321 513.16636625 -63.37091064 512.70697021 C-64.48974892 512.47200584 -65.60858719 512.23704147 -66.76132965 511.99495697 C-67.92145317 511.75129646 -69.08157669 511.50763596 -70.27685547 511.2565918 C-72.79355809 510.72972185 -75.31030351 510.20305631 -77.8270874 509.67657471 C-83.23658697 508.54470792 -88.64578558 507.41141286 -94.05477905 506.27713013 C-102.81687577 504.43975102 -111.57964389 502.60558615 -120.3425293 500.77197266 C-121.8678727 500.45278776 -123.39321596 500.13360218 -124.91855907 499.81441593 C-127.23889646 499.32887428 -129.55923459 498.84333622 -131.87957567 498.35781223 C-136.63286262 497.36318446 -141.38610172 496.36832842 -146.13930434 495.37329775 C-181.29273328 488.01435422 -216.45145496 480.68083033 -251.61065298 473.34950811 C-260.23761148 471.55061273 -268.86449215 469.75134425 -277.49136341 467.95203054 C-292.05931351 464.91358189 -306.62729262 461.8752723 -321.1953125 458.8371582 C-322.02985234 458.66311757 -322.86439218 458.48907695 -323.72422111 458.30976236 C-335.11287375 455.9347036 -346.50155813 453.55979708 -357.8902601 451.18497491 C-364.07077253 449.89618146 -370.25127705 448.60735012 -376.43178105 447.31851625 C-378.7089895 446.84364827 -380.9861999 446.36878968 -383.26341057 445.89393234 C-399.28934194 442.55208274 -415.31505025 439.20917002 -431.34008789 435.86303711 C-432.73967248 435.57080435 -434.13925725 435.27857247 -435.5388422 434.98634148 C-446.85499768 432.62352701 -446.85499768 432.62352701 -452.06047249 431.53645706 C-468.12781212 428.18118128 -484.19653303 424.83267319 -500.26761436 421.49536324 C-510.37704373 419.39599222 -520.48562448 417.29256519 -530.59356117 415.18601799 C-537.51858437 413.7431133 -544.44470616 412.30565306 -551.37175179 410.87249088 C-555.54141019 410.00839481 -559.70992776 409.13889857 -563.87811661 408.26774406 C-565.79208982 407.86887796 -567.70653864 407.47228637 -569.62148666 407.07812691 C-572.20973087 406.54508118 -574.7961807 406.00406865 -577.38232422 405.4609375 C-578.51187625 405.23137423 -578.51187625 405.23137423 -579.66424751 404.99717331 C-583.03701784 404.28035256 -585.2474066 403.61346396 -588.15576172 401.67456055 C-587.82576172 401.34456055 -587.49576172 401.01456055 -587.15576172 400.67456055 C-587.05715326 399.17092481 -587.02836927 397.66265928 -587.02712727 396.15579414 C-587.02390282 395.17333564 -587.02067837 394.19087713 -587.01735622 393.17864716 C-587.01890482 392.08635894 -587.02045342 390.99407072 -587.02204895 389.86868286 C-587.01978339 388.71838337 -587.01751784 387.56808388 -587.01518363 386.38292682 C-587.0099254 383.17572353 -587.00920265 379.96855523 -587.010378 376.76134896 C-587.01058127 373.3079667 -587.00507029 369.85459294 -587.00032043 366.4012146 C-586.99199707 359.62981953 -586.98926483 352.85843316 -586.98870806 346.08703341 C-586.98823366 340.58507865 -586.98618273 335.08312678 -586.98300743 329.58117294 C-586.97419597 313.99709361 -586.96958878 298.41302118 -586.9703379 282.82893933 C-586.97037786 281.98796015 -586.97041782 281.14698097 -586.97045898 280.28051758 C-586.97049987 279.43851665 -586.97054075 278.59651571 -586.97058287 277.7289996 C-586.9709894 264.08024067 -586.9614194 250.43150932 -586.94732062 236.78275837 C-586.93297287 222.78298662 -586.92604956 208.78322834 -586.92691439 194.78344905 C-586.92724694 186.9177661 -586.92447493 179.05211205 -586.91373634 171.1864357 C-586.90465232 164.48950108 -586.90243871 157.79260846 -586.90924577 151.09567036 C-586.91252175 147.67661246 -586.91252911 144.25763524 -586.90389252 140.8385849 C-586.89623564 137.13711849 -586.90077541 133.43586692 -586.90852356 129.73440552 C-586.90338 128.64657874 -586.89823643 127.55875197 -586.892937 126.43796074 C-586.8975358 125.45028674 -586.9021346 124.46261275 -586.90687275 123.44500923 C-586.90665538 122.5900414 -586.90643801 121.73507357 -586.90621406 120.85419762 C-587.02129149 118.38177138 -587.02129149 118.38177138 -589.15576172 115.67456055 C-588.60045588 115.56029819 -588.04515003 115.44603582 -587.47301674 115.32831097 C-523.27371189 102.11795115 -459.07866444 88.88766648 -394.90576172 75.54956055 C-394.25380734 75.41405651 -393.60185297 75.27855247 -392.9301424 75.13894224 C-381.42110002 72.7468541 -369.91212662 70.35443396 -358.4032402 67.96159554 C-335.3373446 63.16591772 -312.27030884 58.37574817 -289.20263672 53.58862305 C-288.37380981 53.41661983 -287.54498291 53.24461661 -286.69104004 53.06740117 C-278.25061846 51.31580284 -269.81017863 49.56429253 -261.36972713 47.81283838 C-243.76186253 44.15907982 -226.15411577 40.5047535 -208.54638672 36.8503418 C-207.72589592 36.68005297 -206.90540512 36.50976415 -206.06005096 36.33431506 C-171.30313648 29.12068136 -136.54655167 21.90546075 -101.79045677 14.6878792 C-96.87619676 13.66737786 -91.96190872 12.64701151 -87.04760742 11.62670898 C-80.52195352 10.27185579 -73.99635782 8.91672267 -67.47080231 7.56139565 C-65.11457374 7.07205819 -62.75832762 6.58280531 -60.40206146 6.09364891 C-58.21595561 5.63980466 -56.02989229 5.1857555 -53.84387589 4.7314806 C-51.79777917 4.3066318 -49.75148785 3.88271894 -47.70498276 3.45984173 C-43.0264305 2.49100018 -38.3536829 1.50362513 -33.68933105 0.46841431 C-32.39925203 0.18562103 -32.39925203 0.18562103 -31.08311081 -0.10288525 C-29.50559752 -0.4498835 -27.92947034 -0.80328702 -26.3552742 -1.1650362 C-17.05882952 -3.1984072 -9.20574313 -1.95208002 0 0 Z M-31.39233398 3.81298828 C-32.50725818 4.04359325 -33.62218237 4.27419823 -34.77089214 4.51179123 C-38.50626071 5.28638199 -42.23915196 6.07231036 -45.97216797 6.8581543 C-48.65923269 7.41862471 -51.34680458 7.97664569 -54.03436279 8.53474426 C-59.85231784 9.74418833 -65.66905193 10.95936344 -71.48501587 12.17834473 C-80.06707404 13.9769916 -88.65104909 15.7663512 -97.23554456 17.55332494 C-107.98179575 19.79035161 -118.72768584 22.0291012 -129.47261047 24.27249146 C-130.3153792 24.44844947 -131.15814793 24.62440748 -132.0264551 24.80569756 C-132.87070821 24.98196769 -133.71496132 25.15823782 -134.58479786 25.33984947 C-156.1311913 29.83847195 -177.681469 34.31817694 -199.23388672 38.7878418 C-200.85982287 39.12505842 -202.48575874 39.46227639 -204.11169434 39.7994957 C-210.6405464 41.15355482 -217.16941591 42.50752974 -223.69831848 43.86134529 C-235.25541178 46.25785191 -246.81214686 48.65608041 -258.36865234 51.05541992 C-259.19421883 51.22682173 -260.01978531 51.39822353 -260.87036896 51.57481933 C-265.05326284 52.44326851 -269.23615114 53.31174454 -273.41903687 54.180233 C-300.1401898 59.72829397 -326.86189367 65.27369298 -353.58421981 70.81610042 C-370.12899927 74.24761073 -386.67367747 77.67960921 -403.21826172 81.11206055 C-404.05849601 81.28638092 -404.8987303 81.46070128 -405.76442623 81.64030409 C-458.57312187 92.59649289 -511.3754335 103.58235899 -564.15576172 114.67456055 C-564.15576172 115.00456055 -564.15576172 115.33456055 -564.15576172 115.67456055 C-202.14576172 115.67456055 159.86423828 115.67456055 532.84423828 115.67456055 C532.84423828 115.34456055 532.84423828 115.01456055 532.84423828 114.67456055 C531.55438019 114.40878708 530.26452209 114.14301361 528.93557739 113.8691864 C467.25064802 101.15843572 405.57012638 88.42695936 343.90673828 75.61206055 C343.25266274 75.47613227 342.59858721 75.340204 341.9246912 75.20015669 C330.36446348 72.79772819 318.80428622 70.39505684 307.24417114 67.99208641 C284.95684756 63.35929549 262.66860741 58.73093171 240.37980413 54.10526514 C237.86842393 53.58406137 235.35704924 53.06283103 232.84567642 52.54159164 C215.98142765 49.0413966 199.11704809 45.54183543 182.25205803 42.0452137 C173.92722883 40.3192185 165.60250596 38.59271074 157.27783203 36.8659668 C156.45801015 36.69592463 155.63818828 36.52588246 154.79352331 36.3506875 C131.93204693 31.60871453 109.07497861 26.84611859 86.22239625 22.06146872 C80.77562883 20.92117756 75.32857668 19.78225548 69.88131714 18.64431763 C69.12914669 18.48718351 68.37697624 18.3300494 67.60201275 18.16815364 C64.6081288 17.54274238 61.61423489 16.91737891 58.62030244 16.29219985 C50.01880761 14.49605135 41.41832389 12.6952456 32.81960112 10.88587087 C26.91960463 9.644817 21.01795008 8.41184447 15.1156292 7.18188667 C12.71899064 6.68102009 10.32293049 6.17737645 7.9275074 5.67072868 C4.67410344 4.98293794 1.41880019 4.30497248 -1.8371582 3.62939453 C-2.77459618 3.42868599 -3.71203415 3.22797745 -4.67787933 3.02118683 C-14.21297166 1.06535702 -21.95301098 1.80407298 -31.39233398 3.81298828 Z M-581.15576172 118.67456055 C-577.34225601 123.12365054 -573.59645725 127.37859153 -569.46096802 131.48960876 C-568.65086016 132.30099826 -568.65086016 132.30099826 -567.82438648 133.12877947 C-566.03502416 134.9197737 -564.24213963 136.70719764 -562.44921875 138.49462891 C-561.15749482 139.78607045 -559.86599167 141.07773286 -558.57469177 142.36959839 C-555.08359192 145.86098418 -551.58942582 149.34928642 -548.09468699 152.83702922 C-544.43737675 156.48807206 -540.78291368 160.14196251 -537.12814331 163.79554749 C-530.21360938 170.70697807 -523.29653113 177.61585638 -516.37852752 184.52381378 C-508.49989597 192.39125322 -500.62411665 200.26154527 -492.74857163 208.13207424 C-476.55413249 224.31607156 -460.35612772 240.49649622 -444.15576172 256.67456055 C-440.18207107 255.07250492 -437.51010489 252.30578877 -434.54962158 249.31565857 C-433.71757568 248.48723429 -433.71757568 248.48723429 -432.86872077 247.64207417 C-431.0107202 245.78971074 -429.15995599 243.93028309 -427.30908203 242.07080078 C-425.97888178 240.74167337 -424.6482487 239.41297901 -423.31721497 238.08468628 C-419.7034675 234.47578869 -416.09600493 230.86066792 -412.48975849 227.24427676 C-408.72006571 223.46580977 -404.9451113 219.69260637 -401.1708374 215.91871643 C-394.83573681 209.58267917 -388.50452282 203.24277925 -382.17578125 196.90039062 C-374.84796396 189.55683087 -367.51491607 182.21852792 -360.17885709 174.88320202 C-353.13165914 167.83661329 -346.08731741 160.78717691 -339.04457855 153.73613167 C-336.04215644 150.73016967 -333.03887808 147.72506695 -330.03495026 144.72060966 C-326.50319561 141.1878543 -322.97398881 137.65257329 -319.44678307 134.11527634 C-318.14793042 132.81349038 -316.84821754 131.51256211 -315.54760933 130.21253014 C-313.78073836 128.44614601 -312.01694921 126.67674329 -310.25396729 124.90647888 C-309.73141774 124.38547794 -309.2088682 123.864477 -308.67048383 123.32768816 C-306.22975313 121.34104964 -306.22975313 121.34104964 -305.15576172 118.67456055 C-396.23576172 118.67456055 -487.31576172 118.67456055 -581.15576172 118.67456055 Z M-296.15576172 118.67456055 C-292.35383579 123.1101408 -288.62176279 127.35340546 -284.49893188 131.4516449 C-283.96294353 131.98848768 -283.42695517 132.52533046 -282.87472475 133.0784412 C-281.09918179 134.85561586 -279.3201172 136.62922043 -277.54101562 138.40283203 C-276.25914378 139.68442148 -274.97749274 140.96623181 -273.69604492 142.24824524 C-270.23180368 145.7127724 -266.76449642 149.1742161 -263.29661608 152.63510013 C-259.66733291 156.2581156 -256.0408972 159.88397896 -252.41415405 163.50953674 C-245.55274411 170.36784343 -238.68878989 177.22359784 -231.82391012 184.07843119 C-224.00573677 191.88541214 -216.1904159 199.69524595 -208.37532926 207.50531662 C-192.30530432 223.56489993 -176.23171377 239.62091055 -160.15576172 255.67456055 C-156.19885169 254.07587831 -153.53677582 251.33257204 -150.58758545 248.35362244 C-150.03697173 247.80542314 -149.48635802 247.25722384 -148.91905904 246.69241244 C-147.07487794 244.85386815 -145.23793341 243.00826075 -143.40087891 241.16259766 C-142.08053074 239.84332234 -140.75974974 238.52448008 -139.43856812 237.20603943 C-135.85167928 233.62400033 -132.27107535 230.03573851 -128.69168758 226.44620585 C-124.95002212 222.69576598 -121.20309484 218.95058991 -117.45684814 215.20472717 C-111.16882596 208.91576833 -104.88469041 202.62294698 -98.60302734 196.32763672 C-91.32974167 189.03860845 -84.05122536 181.75483721 -76.7696979 174.47404283 C-69.77482567 167.47977982 -62.78280968 160.48266918 -55.79239655 153.48394966 C-52.81230312 150.50031636 -49.83135347 147.51754234 -46.84975433 144.53541374 C-43.34426447 141.02892317 -39.84132256 137.51990702 -36.34038162 134.00887489 C-35.05120432 132.7167643 -33.76116679 131.42551135 -32.47023392 130.13515472 C-30.71650004 128.38190769 -28.96584824 126.62564228 -27.21600342 124.86851501 C-26.69734483 124.35140502 -26.17868623 123.83429503 -25.64431071 123.30151504 C-23.2196145 121.32671151 -23.2196145 121.32671151 -22.15576172 118.67456055 C-112.57576172 118.67456055 -202.99576172 118.67456055 -296.15576172 118.67456055 Z M-13.15576172 118.67456055 C-9.34225601 123.12365054 -5.59645725 127.37859153 -1.46096802 131.48960876 C-0.65086016 132.30099826 -0.65086016 132.30099826 0.17561352 133.12877947 C1.96497584 134.9197737 3.75786037 136.70719764 5.55078125 138.49462891 C6.84250518 139.78607045 8.13400833 141.07773286 9.42530823 142.36959839 C12.91640808 145.86098418 16.41057418 149.34928642 19.90531301 152.83702922 C23.56262325 156.48807206 27.21708632 160.14196251 30.87185669 163.79554749 C37.78639062 170.70697807 44.70346887 177.61585638 51.62147248 184.52381378 C59.50010403 192.39125322 67.37588335 200.26154527 75.25142837 208.13207424 C91.44586751 224.31607156 107.64387228 240.49649622 123.84423828 256.67456055 C130.89811909 250.90642316 137.2348609 244.42469752 143.66430664 237.98388672 C144.95575651 236.69379337 146.2474187 235.40391253 147.53927612 234.11422729 C151.03075619 230.62728891 154.51908663 227.13721575 158.00670695 223.64641738 C161.65804693 219.99254017 165.31183223 216.34110953 168.96522522 212.68928528 C175.09246714 206.56385968 181.21760373 200.43633478 187.34155273 194.30761719 C194.4306136 187.21310015 201.52328946 180.12221245 208.61782545 173.03317088 C214.7089264 166.94659899 220.7980877 160.85809177 226.8856135 154.76794416 C230.52188284 151.13011278 234.15883173 147.49296772 237.79752922 143.85756493 C241.21184435 140.44612599 244.62372782 137.03227405 248.03370285 133.61649704 C249.28901616 132.3598554 250.54519245 131.10407519 251.80226707 129.84919548 C253.50984818 128.14432264 255.21435787 126.43643923 256.91807556 124.72770691 C257.42301495 124.22499824 257.92795434 123.72228958 258.44819492 123.20434731 C260.81633057 121.27401602 260.81633057 121.27401602 261.84423828 118.67456055 C171.09423828 118.67456055 80.34423828 118.67456055 -13.15576172 118.67456055 Z M270.84423828 118.67456055 C274.64616421 123.1101408 278.37823721 127.35340546 282.50106812 131.4516449 C283.03705647 131.98848768 283.57304483 132.52533046 284.12527525 133.0784412 C285.90081821 134.85561586 287.6798828 136.62922043 289.45898438 138.40283203 C290.74085622 139.68442148 292.02250726 140.96623181 293.30395508 142.24824524 C296.76819632 145.7127724 300.23550358 149.1742161 303.70338392 152.63510013 C307.33266709 156.2581156 310.9591028 159.88397896 314.58584595 163.50953674 C321.44725589 170.36784343 328.31121011 177.22359784 335.17608988 184.07843119 C342.99426323 191.88541214 350.8095841 199.69524595 358.62467074 207.50531662 C374.69469568 223.56489993 390.76828623 239.62091055 406.84423828 255.67456055 C413.86368777 249.93186425 420.17326945 243.48632447 426.57250977 237.07568359 C427.85410756 235.79544235 429.13591766 234.51541361 430.41792297 233.23558044 C433.88254427 229.77550054 437.34401623 226.31228628 440.80477786 222.84834647 C444.42809056 219.22249642 448.05384872 215.59909307 451.67921448 211.97529602 C457.75937794 205.89694884 463.83743613 199.81650249 469.91430664 193.73486328 C476.9488359 186.69487775 483.98698025 179.65852176 491.02698463 172.6240117 C497.07137685 166.58414854 503.11382939 160.54235008 509.15464646 154.4989112 C512.76297013 150.8890255 516.3719733 147.27982611 519.98272514 143.672369 C523.37077547 140.28719487 526.75639407 136.89960779 530.14010429 133.5100956 C531.38574226 132.26312931 532.6322432 131.01702442 533.87964249 129.77182007 C535.57408651 128.08008434 537.26545884 126.38533823 538.95603943 124.68974304 C539.45708787 124.19092532 539.95813631 123.6921076 540.47436804 123.1781742 C542.8264531 121.25961596 542.8264531 121.25961596 543.84423828 118.67456055 C453.75423828 118.67456055 363.66423828 118.67456055 270.84423828 118.67456055 Z M544.12944025 124.26027727 C543.59929317 124.79333719 543.0691461 125.3263971 542.52293396 125.87561035 C541.96263286 126.43505702 541.40233176 126.9945037 540.82505184 127.5709033 C538.93249156 129.46180552 537.04354706 131.35627999 535.15454102 133.25073242 C533.80487165 134.60068361 532.45498254 135.95041513 531.10488892 137.29994202 C527.42720245 140.97734033 523.75261789 144.65782441 520.07855868 148.33884621 C516.24328332 152.18035223 512.40519569 156.01904631 508.56739807 159.85803223 C501.29453033 167.13401414 494.0242165 174.4125425 486.75480372 181.69197607 C478.48120651 189.97673177 470.2047861 198.25866461 461.92812049 206.54035473 C444.89700357 223.58193797 427.86945736 240.62708527 410.84423828 257.67456055 C412.44629391 261.64825119 415.21301006 264.32021738 418.20314026 267.28070068 C419.03156454 268.11274659 419.03156454 268.11274659 419.87672466 268.9616015 C421.72908809 270.81960206 423.58851574 272.67036627 425.44799805 274.52124023 C426.77712546 275.85144049 428.10581981 277.18207357 429.43411255 278.5131073 C433.04301014 282.12685477 436.65813091 285.73431734 440.27452207 289.34056377 C444.05298906 293.11025656 447.82619246 296.88521096 451.6000824 300.65948486 C457.93611966 306.99458545 464.27601958 313.32579944 470.6184082 319.65454102 C477.96196796 326.9823583 485.30027091 334.3154062 492.63559681 341.65146518 C499.68218554 348.69866313 506.73162192 355.74300485 513.78266716 362.78574371 C516.78862916 365.78816583 519.79373188 368.79144419 522.79818916 371.79537201 C526.33094452 375.32712666 529.86622554 378.85633346 533.40352249 382.3835392 C534.70530845 383.68239184 536.00623672 384.98210472 537.30626869 386.28271294 C539.07265282 388.04958391 540.84205553 389.81337306 542.61231995 391.57635498 C543.13332089 392.09890452 543.65432182 392.62145406 544.19111067 393.15983844 C546.17774918 395.60056913 546.17774918 395.60056913 548.84423828 396.67456055 C548.84423828 305.59456055 548.84423828 214.51456055 548.84423828 120.67456055 C546.76707676 120.67456055 545.51842884 122.87705965 544.12944025 124.26027727 Z M-16.15576172 121.67456055 C-16.15576172 212.42456055 -16.15576172 303.17456055 -16.15576172 396.67456055 C-11.72018147 392.87263462 -7.4769168 389.14056162 -3.37867737 385.01773071 C-2.84183459 384.48174236 -2.30499181 383.945754 -1.75188106 383.39352357 C0.0252936 381.61798062 1.79889816 379.83891603 3.57250977 378.05981445 C4.85409921 376.77794261 6.13590954 375.49629156 7.41792297 374.21484375 C10.88245014 370.75060251 14.34389383 367.28329524 17.80477786 363.81541491 C21.42779333 360.18613174 25.0536567 356.55969603 28.67921448 352.93295288 C35.53752117 346.07154293 42.39327558 339.20758871 49.24810892 332.34270895 C57.05508987 324.5245356 64.86492368 316.70921473 72.67499435 308.89412808 C88.73457767 292.82410315 104.79058828 276.7505126 120.84423828 260.67456055 C119.26908443 256.86953017 116.88050427 254.46687985 113.98127747 251.57781982 C113.48223064 251.07776971 112.98318381 250.5777196 112.46901435 250.06251645 C110.7964709 248.38902084 109.11688651 246.72277654 107.43725586 245.05639648 C106.23607457 243.85741667 105.0353409 242.65798828 103.83502197 241.45814514 C101.24879688 238.87485407 98.65944532 236.29475268 96.06763649 233.7170639 C91.96489691 229.63660151 87.86926684 225.54905305 83.77458191 221.46051025 C77.29148011 214.98879471 70.80372652 208.52176561 64.31393403 202.05676007 C52.70806276 190.49515125 41.1076587 178.92806372 29.51257056 167.35564065 C25.44609183 163.29754121 21.37682127 159.24226861 17.30524313 155.18928576 C14.76420917 152.65894893 12.22524935 150.12653827 9.68678284 147.59362602 C8.51506852 146.42536162 7.34248449 145.25796871 6.16893578 144.09154701 C-4.72177336 133.26548445 -4.72177336 133.26548445 -9.56000233 127.38853836 C-11.54214976 125.25954777 -13.88431792 123.49171559 -16.15576172 121.67456055 Z M-583.15576172 122.67456055 C-583.15576172 213.09456055 -583.15576172 303.51456055 -583.15576172 396.67456055 C-578.72018147 392.87263462 -574.4769168 389.14056162 -570.37867737 385.01773071 C-569.84183459 384.48174236 -569.30499181 383.945754 -568.75188106 383.39352357 C-566.9747064 381.61798062 -565.20110184 379.83891603 -563.42749023 378.05981445 C-562.14590079 376.77794261 -560.86409046 375.49629156 -559.58207703 374.21484375 C-556.11754986 370.75060251 -552.65610617 367.28329524 -549.19522214 363.81541491 C-545.57220667 360.18613174 -541.9463433 356.55969603 -538.32078552 352.93295288 C-531.46247883 346.07154293 -524.60672442 339.20758871 -517.75189108 332.34270895 C-509.94491013 324.5245356 -502.13507632 316.70921473 -494.32500565 308.89412808 C-478.26542233 292.82410315 -462.20941172 276.7505126 -446.15576172 260.67456055 C-447.75444395 256.71765052 -450.49775022 254.05557464 -453.47669983 251.10638428 C-454.02489913 250.55577056 -454.57309843 250.00515685 -455.13790983 249.43785787 C-456.97645412 247.59367677 -458.82206151 245.75673224 -460.66772461 243.91967773 C-461.98699992 242.59932956 -463.30584219 241.27854857 -464.62428284 239.95736694 C-468.20632194 236.3704781 -471.79458375 232.78987417 -475.38411641 229.21048641 C-479.13455628 225.46882094 -482.87973236 221.72189367 -486.62559509 217.97564697 C-492.91455394 211.68762479 -499.20737529 205.40348923 -505.50268555 199.12182617 C-512.79171381 191.8485405 -520.07548505 184.57002419 -527.35627943 177.28849673 C-534.35054245 170.2936245 -541.34765308 163.30160851 -548.3463726 156.31119537 C-551.3300059 153.33110194 -554.31277993 150.35015229 -557.29490852 147.36855316 C-560.8013991 143.8630633 -564.31041525 140.36012139 -567.82144737 136.85918045 C-569.11355797 135.57000315 -570.40481091 134.27996562 -571.69516754 132.98903275 C-573.44841458 131.23529886 -575.20467999 129.48464707 -576.96180725 127.73480225 C-577.47891724 127.21614365 -577.99602723 126.69748506 -578.52880722 126.16310954 C-580.50361076 123.73841333 -580.50361076 123.73841333 -583.15576172 122.67456055 Z M-306.87055975 126.26027727 C-307.40070683 126.79333719 -307.9308539 127.3263971 -308.47706604 127.87561035 C-309.03736714 128.43505702 -309.59766824 128.9945037 -310.17494816 129.5709033 C-312.06750844 131.46180552 -313.95645294 133.35627999 -315.84545898 135.25073242 C-317.19512835 136.60068361 -318.54501746 137.95041513 -319.89511108 139.29994202 C-323.57279755 142.97734033 -327.24738211 146.65782441 -330.92144132 150.33884621 C-334.75671668 154.18035223 -338.59480431 158.01904631 -342.43260193 161.85803223 C-349.70546967 169.13401414 -356.9757835 176.4125425 -364.24519628 183.69197607 C-372.51879349 191.97673177 -380.7952139 200.25866461 -389.07187951 208.54035473 C-406.10299643 225.58193797 -423.13054264 242.62708527 -440.15576172 259.67456055 C-434.38762433 266.72844135 -427.90589869 273.06518317 -421.46508789 279.49462891 C-420.17499454 280.78607878 -418.8851137 282.07774096 -417.59542847 283.36959839 C-414.10849008 286.86107845 -410.61841692 290.34940889 -407.12761855 293.83702922 C-403.47374134 297.4883692 -399.8223107 301.1421545 -396.17048645 304.79554749 C-390.04506085 310.92278941 -383.91753596 317.04792599 -377.78881836 323.171875 C-370.69430133 330.26093587 -363.60341362 337.35361173 -356.51437205 344.44814771 C-350.42780016 350.53924867 -344.33929294 356.62840996 -338.24914533 362.71593577 C-334.61131395 366.3522051 -330.97416889 369.98915399 -327.3387661 373.62785149 C-323.92732716 377.04216661 -320.51347522 380.45405009 -317.09769821 383.86402512 C-315.84105657 385.11933842 -314.58527636 386.37551471 -313.33039665 387.63258934 C-311.62552381 389.34017045 -309.9176404 391.04468014 -308.20890808 392.74839783 C-307.70619941 393.25333722 -307.20349075 393.7582766 -306.68554848 394.27851719 C-304.7552172 396.64665283 -304.7552172 396.64665283 -302.15576172 397.67456055 C-302.15576172 306.92456055 -302.15576172 216.17456055 -302.15576172 122.67456055 C-304.23292324 122.67456055 -305.48157116 124.87705965 -306.87055975 126.26027727 Z M-299.15576172 122.67456055 C-299.15576172 212.76456055 -299.15576172 302.85456055 -299.15576172 395.67456055 C-294.72018147 391.87263462 -290.4769168 388.14056162 -286.37867737 384.01773071 C-285.84183459 383.48174236 -285.30499181 382.945754 -284.75188106 382.39352357 C-282.9747064 380.61798062 -281.20110184 378.83891603 -279.42749023 377.05981445 C-278.14590079 375.77794261 -276.86409046 374.49629156 -275.58207703 373.21484375 C-272.11754986 369.75060251 -268.65610617 366.28329524 -265.19522214 362.81541491 C-261.57220667 359.18613174 -257.9463433 355.55969603 -254.32078552 351.93295288 C-247.46247883 345.07154293 -240.60672442 338.20758871 -233.75189108 331.34270895 C-225.94491013 323.5245356 -218.13507632 315.70921473 -210.32500565 307.89412808 C-194.26542233 291.82410315 -178.20941172 275.7505126 -162.15576172 259.67456055 C-167.89845802 252.65511106 -174.3439978 246.34552938 -180.75463867 239.94628906 C-182.03487992 238.66469127 -183.31490866 237.38288117 -184.59474182 236.10087585 C-188.05482172 232.63625456 -191.51803599 229.1747826 -194.98197579 225.71402097 C-198.60782585 222.09070827 -202.23122919 218.46495011 -205.85502625 214.83958435 C-211.93337342 208.75942089 -218.01381978 202.68136269 -224.09545898 196.60449219 C-231.13544452 189.56996293 -238.17180051 182.53181858 -245.20631057 175.4918142 C-251.24617372 169.44742198 -257.28797219 163.40496944 -263.33141106 157.36415237 C-266.94129677 153.7558287 -270.55049616 150.14682553 -274.15795326 146.53607368 C-277.5431274 143.14802335 -280.93071447 139.76240476 -284.32022667 136.37869453 C-285.56719296 135.13305657 -286.81329784 133.88655563 -288.0585022 132.63915634 C-289.75023793 130.94471232 -291.44498404 129.25333999 -293.14057922 127.5627594 C-293.63939694 127.06171096 -294.13821466 126.56066252 -294.65214807 126.04443079 C-296.57070631 123.69234573 -296.57070631 123.69234573 -299.15576172 122.67456055 Z M-23.84438664 126.23410416 C-24.63377083 127.02785761 -24.63377083 127.02785761 -25.43910217 127.83764648 C-25.99531972 128.39300961 -26.55153726 128.94837273 -27.12460989 129.52056503 C-29.00335069 131.39764778 -30.87847557 133.2783026 -32.75366211 135.15893555 C-34.09347938 136.49903465 -35.43351641 137.83891407 -36.77375793 139.17858887 C-40.42458578 142.82912856 -44.07231166 146.48275394 -47.71951222 150.13691711 C-51.52676035 153.95039593 -55.33682078 157.76106278 -59.14659119 161.57202148 C-66.366335 168.79487945 -73.58352486 176.02028384 -80.79981369 183.24659348 C-89.01295254 191.47089084 -97.22891461 199.69236533 -105.44512188 207.91359711 C-122.3518247 224.83076623 -139.25495679 241.75149939 -156.15576172 258.67456055 C-150.41306542 265.69401004 -143.96752564 272.00359172 -137.55688477 278.40283203 C-136.27664352 279.68442982 -134.99661478 280.96623992 -133.71678162 282.24824524 C-130.25670171 285.71286653 -126.79348745 289.17433849 -123.32954764 292.63510013 C-119.70369759 296.25841283 -116.08029425 299.88417099 -112.45649719 303.50953674 C-106.37815001 309.5897002 -100.29770366 315.6677584 -94.21606445 321.74462891 C-87.17607892 328.77915817 -80.13972293 335.81730251 -73.10521287 342.8573069 C-67.06534971 348.90169911 -61.02355125 354.94415166 -54.98011237 360.98496872 C-51.37022667 364.5932924 -47.76102728 368.20229557 -44.15357018 371.81304741 C-40.76839604 375.20109774 -37.38080896 378.58671633 -33.99129677 381.97042656 C-32.74433048 383.21606452 -31.4982256 384.46256547 -30.25302124 385.70996475 C-28.56128551 387.40440877 -26.8665394 389.0957811 -25.17094421 390.78636169 C-24.6721265 391.28741013 -24.17330878 391.78845858 -23.65937537 392.3046903 C-21.74081713 394.65677536 -21.74081713 394.65677536 -19.15576172 395.67456055 C-19.15576172 305.58456055 -19.15576172 215.49456055 -19.15576172 122.67456055 C-21.22465431 122.67456055 -22.46124438 124.85675066 -23.84438664 126.23410416 Z M259.18178648 127.20793104 C258.6594213 127.73320906 258.13705612 128.25848708 257.59886169 128.79968262 C257.0467277 129.35096219 256.49459371 129.90224175 255.92572838 130.47022676 C254.06080706 132.33349004 252.1995018 134.2003252 250.33813477 136.06713867 C249.00816959 137.39738568 247.67798465 138.72741301 246.34759521 140.05723572 C242.723626 143.68091679 239.10275879 147.30768348 235.48241687 150.93498802 C231.70319597 154.72043963 227.92116275 158.50307925 224.13941956 162.28601074 C216.97279968 169.45574477 209.80873378 176.62802519 202.64556891 183.80121088 C194.49288842 191.96504991 186.33738468 200.12606604 178.18163574 208.28683949 C161.39934702 225.07959449 144.62062907 241.87591351 127.84423828 258.67456055 C129.22059783 261.76557591 130.79513533 263.87174946 133.18864441 266.25274658 C133.8796524 266.94505875 134.5706604 267.63737091 135.28260803 268.35066223 C136.41949318 269.47440498 136.41949318 269.47440498 137.5793457 270.62084961 C138.37794006 271.41812973 139.17653442 272.21540985 139.99932861 273.03684998 C142.64489383 275.67591601 145.2973596 278.30793747 147.94970703 280.94018555 C149.79146775 282.77567441 151.63271329 284.61168035 153.47346497 286.44818115 C157.83189933 290.79465877 162.19439532 295.13701683 166.55923873 299.47705722 C174.82113271 307.69206386 183.07609675 315.91401354 191.32686806 324.14019012 C194.03144845 326.8345898 196.73944252 329.52552288 199.44779968 332.21612549 C201.11937079 333.8808627 202.79082948 335.5457128 204.4621582 337.21069336 C205.58386162 338.32229073 205.58386162 338.32229073 206.72822571 339.4563446 C210.75060235 343.47007499 214.57751398 347.58529283 218.28730106 351.88926315 C220.29583511 354.1923943 222.41093515 356.36834694 224.5703125 358.5300293 C225.85601639 359.82046143 225.85601639 359.82046143 227.16769409 361.13696289 C228.06900055 362.03624512 228.97030701 362.93552734 229.89892578 363.86206055 C230.85074178 364.81455172 231.80240943 365.76719116 232.75393677 366.7199707 C234.73066265 368.69815851 236.70915505 370.67455699 238.68896484 372.6496582 C241.23121694 375.18615883 243.76887896 377.72719733 246.30528069 380.26954651 C248.26106935 382.22893513 250.21921638 384.1859528 252.1781044 386.14224243 C253.57157514 387.53472048 254.96302977 388.92921512 256.35446167 390.32373047 C257.61179611 391.57633667 257.61179611 391.57633667 258.89453125 392.85424805 C260.00536575 393.96388916 260.00536575 393.96388916 261.13864136 395.09594727 C262.57921763 396.78777038 262.57921763 396.78777038 263.84423828 396.67456055 C263.84423828 306.58456055 263.84423828 216.49456055 263.84423828 123.67456055 C261.78365088 123.67456055 260.55907404 125.83645025 259.18178648 127.20793104 Z M268.84423828 123.67456055 C268.84423828 213.10456055 268.84423828 302.53456055 268.84423828 394.67456055 C274.33039634 390.01555533 274.33039634 390.01555533 279.52416992 385.12161255 C280.48264328 384.16736893 280.48264328 384.16736893 281.46047974 383.19384766 C282.13497162 382.51733154 282.8094635 381.84081543 283.50439453 381.14379883 C284.23544403 380.41450165 284.96649353 379.68520447 285.71969604 378.93380737 C288.11788561 376.5399924 290.51242975 374.14256939 292.90673828 371.74487305 C294.58375702 370.06852868 296.26092412 368.39233272 297.93823242 366.71627808 C301.446615 363.20936659 304.9531909 359.70066121 308.45849609 356.19067383 C312.93705934 351.7064181 317.4200913 347.22666108 321.90449524 342.74824715 C325.36711013 339.28925752 328.82732521 335.8278751 332.28683472 332.36577988 C333.9382094 330.71374113 335.59031888 329.06243654 337.24319458 327.41189957 C339.55926156 325.09839096 341.87206694 322.7816683 344.18408203 320.46411133 C345.19581985 319.45540985 345.19581985 319.45540985 346.22799683 318.42633057 C350.0625774 314.57482802 353.69705908 310.60720464 357.24974251 306.49476433 C359.33418262 304.1152624 361.5301033 301.86882545 363.76977539 299.63549805 C365.12038307 298.28500366 365.12038307 298.28500366 366.49827576 296.90722656 C367.45598974 295.95461615 368.41375975 295.00206207 369.37158203 294.04956055 C370.37070857 293.05230378 371.36961108 292.05482252 372.36830139 291.05712891 C374.97170778 288.45750376 377.57810498 285.86089824 380.18518066 283.26495361 C382.85528102 280.60516292 385.52248106 277.94246714 388.18994141 275.2800293 C393.40523866 270.07539167 398.62370544 264.87394715 403.84423828 259.67456055 C402.25244688 255.75128286 399.55573401 253.10882984 396.59922791 250.18231201 C395.78917961 249.3686421 395.78917961 249.3686421 394.96276671 248.5385344 C393.15186069 246.72199223 391.33389383 244.91268707 389.51586914 243.10327148 C388.21629801 241.80262749 386.91715994 240.50155066 385.61842346 239.20007324 C382.09010134 235.66690166 378.55555743 232.14001501 375.01974177 228.6143446 C371.32535615 224.92873376 367.63623472 221.23786074 363.94642639 217.54766846 C357.75162438 211.35380308 351.55296016 205.1638244 345.35180664 198.97631836 C338.17184136 191.8120959 330.99713354 184.64264277 323.8254022 177.47017837 C316.93579061 170.57995755 310.04333147 163.69259305 303.14926338 156.80683136 C300.21028749 153.87139529 297.27217085 150.93510307 294.33469963 147.99816132 C290.88073863 144.54520104 287.4242522 141.0947889 283.96574974 137.64637756 C282.69298986 136.37655094 281.42108758 135.10586411 280.15008163 133.83428192 C278.42310878 132.10682222 276.69311799 130.38244513 274.96226501 128.65887451 C274.45293692 128.14799782 273.94360883 127.63712112 273.41884655 127.11076331 C271.46767106 124.71814863 271.46767106 124.71814863 268.84423828 123.67456055 Z M402.78488159 265.60693359 C401.91013687 266.47885849 401.03539215 267.35078339 400.13414001 268.24913025 C399.15708499 269.22813002 398.18008175 270.20718146 397.203125 271.1862793 C396.18007337 272.20797693 395.1568089 273.22946147 394.13334656 274.25074768 C391.34347911 277.03603659 388.55680841 279.82450383 385.7708106 282.61366272 C382.85408222 285.53291733 379.93492085 288.44973735 377.0161438 291.36694336 C372.10645301 296.2748112 367.19888181 301.18479112 362.29248047 306.09594727 C356.63284788 311.76100153 350.96965053 317.42247298 345.30454624 323.08205509 C340.43806303 327.94398536 335.57355027 332.80788067 330.7106477 337.6733923 C327.80791492 340.57767861 324.90452403 343.48129837 321.99935532 346.38314819 C319.26057884 349.119015 316.5243002 351.85735667 313.78985023 354.59754753 C312.79064567 355.59806411 311.79060826 356.5977498 310.78963661 357.59649849 C305.78648647 362.58956993 300.88738113 367.61093186 296.30200291 372.9930582 C293.96901693 375.68411087 291.44917214 378.1752195 288.91064453 380.6706543 C288.12644386 381.44917503 288.12644386 381.44917503 287.32640076 382.24342346 C285.68898069 383.8688162 284.04829113 385.49084252 282.40673828 387.11206055 C280.21770117 389.274583 278.03196044 391.44036092 275.84814453 393.6081543 C275.09362755 394.35022377 275.09362755 394.35022377 274.3238678 395.10728455 C273.14504853 396.27760007 271.9917257 397.47350854 270.84423828 398.67456055 C270.84423828 399.00456055 270.84423828 399.33456055 270.84423828 399.67456055 C361.26423828 399.67456055 451.68423828 399.67456055 544.84423828 399.67456055 C541.03257687 395.22762223 537.28714335 390.97173526 533.15617371 386.85951233 C532.34712419 386.04812283 532.34712419 386.04812283 531.52173024 385.22034162 C529.73469648 383.42935595 527.94415407 381.64192224 526.15356445 379.85449219 C524.86347111 378.56304232 523.57359027 377.27138013 522.28390503 375.97952271 C518.79696664 372.48804264 515.30689349 368.9997122 511.81609511 365.51209188 C508.16221791 361.86075189 504.51078727 358.20696659 500.85896301 354.55357361 C494.73353742 348.42633168 488.60601252 342.3011951 482.47729492 336.17724609 C475.38277789 329.08818523 468.29189019 321.99550937 461.20284861 314.90097338 C455.11627672 308.80987243 449.0277695 302.72071113 442.93762189 296.63318533 C439.29979051 292.99691599 435.66264545 289.3599671 432.02724266 285.72126961 C428.61580373 282.30695448 425.20195178 278.89507101 421.78617477 275.48509598 C420.52953313 274.22978267 419.27375292 272.97360638 418.01887321 271.71653175 C416.31400038 270.00895065 414.60611696 268.30444096 412.89738464 266.60072327 C412.39467598 266.09578388 411.89196731 265.59084449 411.37402505 265.07060391 C407.04406455 260.76548075 407.03047841 261.36343112 402.78488159 265.60693359 Z M-446.84438664 266.22944206 C-447.63377083 267.02217233 -447.63377083 267.02217233 -448.43910217 267.83091736 C-448.99531972 268.38557491 -449.55153726 268.94023247 -450.12460989 269.51169783 C-452.00336089 271.38643359 -453.87848589 273.2647555 -455.75366211 275.14306641 C-457.09348607 276.48153656 -458.43352294 277.81979361 -459.77375793 279.15785217 C-463.42469656 282.80421404 -467.07244328 286.45375374 -470.71951222 290.10398555 C-474.52704654 293.91404222 -478.33700938 297.72166912 -482.14659119 301.52967834 C-488.54508633 307.92635143 -494.94146375 314.32513648 -501.33666992 320.72509766 C-508.74257701 328.13644743 -516.15207987 335.54418766 -523.56346136 342.95006269 C-529.91346305 349.29553429 -536.26152367 355.6429428 -542.60795015 361.99199015 C-546.40415732 365.78976066 -550.20104711 369.58684207 -553.99968147 373.38218498 C-557.56986485 376.94949115 -561.13761501 380.51921271 -564.70345879 384.09085655 C-566.01681904 385.40554521 -567.33104238 386.71937227 -568.64616394 388.03229904 C-570.43288876 389.81631553 -572.21654331 391.60334415 -573.99940491 393.39122009 C-574.79213518 394.18060428 -574.79213518 394.18060428 -575.60088021 394.98593563 C-578.06634096 396.9880096 -578.06634096 396.9880096 -579.15576172 399.67456055 C-489.06576172 399.67456055 -398.97576172 399.67456055 -306.15576172 399.67456055 C-309.95583571 395.24114089 -313.6875682 390.99693211 -317.80586243 386.8974762 C-318.60878661 386.09221203 -318.60878661 386.09221203 -319.42793149 385.27067989 C-321.20114603 383.49351396 -322.97786843 381.71989953 -324.75463867 379.94628906 C-326.03487992 378.66469127 -327.31490866 377.38288117 -328.59474182 376.10087585 C-332.05482172 372.63625456 -335.51803599 369.1747826 -338.98197579 365.71402097 C-342.60782585 362.09070827 -346.23122919 358.46495011 -349.85502625 354.83958435 C-355.93337342 348.75942089 -362.01381978 342.68136269 -368.09545898 336.60449219 C-375.13544452 329.56996293 -382.17180051 322.53181858 -389.20631057 315.4918142 C-395.24617372 309.44742198 -401.28797219 303.40496944 -407.33141106 297.36415237 C-410.94129677 293.7558287 -414.55049616 290.14682553 -418.15795326 286.53607368 C-421.5431274 283.14802335 -424.93071447 279.76240476 -428.32022667 276.37869453 C-429.56719296 275.13305657 -430.81329784 273.88655563 -432.0585022 272.63915634 C-433.75023793 270.94471232 -435.44498404 269.25333999 -437.14057922 267.5627594 C-437.63939694 267.06171096 -438.13821466 266.56066252 -438.65214807 266.04443079 C-442.74620363 261.97404071 -442.76429793 262.17171851 -446.84438664 266.22944206 Z M-163.97346795 266.22944206 C-164.49681123 266.75792891 -165.02015452 267.28641576 -165.55935669 267.83091736 C-166.11642866 268.38557491 -166.67350063 268.94023247 -167.24745357 269.51169783 C-169.12549968 271.38407776 -170.99627148 273.26356387 -172.8671875 275.14306641 C-174.20694449 276.48175125 -175.54713414 277.82000322 -176.88772583 279.15785217 C-180.53672046 282.80198485 -184.17941073 286.45236103 -187.82090616 290.10398555 C-191.62398476 293.91582174 -195.43230818 297.72241108 -199.23995972 301.52967834 C-205.63409094 307.92474719 -212.02433038 314.32368415 -218.41210938 320.72509766 C-225.80919172 328.13790991 -233.21149199 335.54547831 -240.61680996 342.95006269 C-247.72594037 350.05858382 -254.83221386 357.16995336 -261.93688583 364.28293037 C-264.96721837 367.31680368 -267.99840799 370.3498169 -271.03024673 373.38218498 C-274.59644736 376.94938643 -278.16009981 380.51911408 -281.72175217 384.09085655 C-283.03350356 385.4055413 -284.34611522 386.7193683 -285.65962219 388.03229904 C-287.44411631 389.81630631 -289.22552884 391.60333257 -291.00613403 393.39122009 C-291.53393876 393.91747622 -292.06174349 394.44373235 -292.6055423 394.98593563 C-295.06801456 396.98864643 -295.06801456 396.98864643 -296.15576172 399.67456055 C-205.73576172 399.67456055 -115.31576172 399.67456055 -22.15576172 399.67456055 C-25.95399003 395.24329419 -29.68537474 390.99815301 -33.7991333 386.8974762 C-34.33371053 386.36063342 -34.86828775 385.82379063 -35.41906428 385.27067989 C-37.18995044 383.49352269 -38.96433062 381.71989839 -40.73876953 379.94628906 C-42.01738016 378.66468292 -43.2957866 377.38287305 -44.57400513 376.10087585 C-48.02992347 372.63616043 -51.48904466 369.17466022 -54.94904423 365.71402097 C-57.11019329 363.55215979 -59.27062824 361.38958764 -61.43080902 359.22675896 C-68.96485719 351.68347673 -76.50146666 344.14276463 -84.04052734 336.60449219 C-91.07410534 329.57151682 -98.10206652 322.53296276 -105.12746167 315.4918142 C-111.16052614 309.44570258 -117.19741072 303.40342361 -123.23732257 297.36415237 C-126.84462038 293.75711007 -130.45033282 290.1485164 -134.05222321 286.53607368 C-137.43279552 283.14586614 -140.81807368 279.76043135 -144.20711899 276.37869453 C-145.452931 275.13393358 -146.69702017 273.88744571 -147.93929672 272.63915634 C-149.62841677 270.94238778 -151.32350608 269.25182384 -153.02032471 267.5627594 C-153.51622958 267.06171096 -154.01213446 266.56066252 -154.52306676 266.04443079 C-158.77279306 261.83783541 -159.75691169 262.05347637 -163.97346795 266.22944206 Z M120.15561336 266.22944206 C119.36622917 267.02217233 119.36622917 267.02217233 118.56089783 267.83091736 C118.00468028 268.38557491 117.44846274 268.94023247 116.87539011 269.51169783 C114.99663911 271.38643359 113.12151411 273.2647555 111.24633789 275.14306641 C109.90651393 276.48153656 108.56647706 277.81979361 107.22624207 279.15785217 C103.57530344 282.80421404 99.92755672 286.45375374 96.28048778 290.10398555 C92.47295346 293.91404222 88.66299062 297.72166912 84.85340881 301.52967834 C78.45491367 307.92635143 72.05853625 314.32513648 65.66333008 320.72509766 C58.25742299 328.13644743 50.84792013 335.54418766 43.43653864 342.95006269 C37.08653695 349.29553429 30.73847633 355.6429428 24.39204985 361.99199015 C20.59584268 365.78976066 16.79895289 369.58684207 13.00031853 373.38218498 C9.43013515 376.94949115 5.86238499 380.51921271 2.29654121 384.09085655 C0.98318096 385.40554521 -0.33104238 386.71937227 -1.64616394 388.03229904 C-3.43288876 389.81631553 -5.21654331 391.60334415 -6.99940491 393.39122009 C-7.79213518 394.18060428 -7.79213518 394.18060428 -8.60088021 394.98593563 C-11.06634096 396.9880096 -11.06634096 396.9880096 -12.15576172 399.67456055 C77.93423828 399.67456055 168.02423828 399.67456055 260.84423828 399.67456055 C257.04416429 395.24114089 253.3124318 390.99693211 249.19413757 386.8974762 C248.39121339 386.09221203 248.39121339 386.09221203 247.57206851 385.27067989 C245.79885397 383.49351396 244.02213157 381.71989953 242.24536133 379.94628906 C240.96512008 378.66469127 239.68509134 377.38288117 238.40525818 376.10087585 C234.94517828 372.63625456 231.48196401 369.1747826 228.01802421 365.71402097 C224.39217415 362.09070827 220.76877081 358.46495011 217.14497375 354.83958435 C211.06662658 348.75942089 204.98618022 342.68136269 198.90454102 336.60449219 C191.86455548 329.56996293 184.82819949 322.53181858 177.79368943 315.4918142 C171.75382628 309.44742198 165.71202781 303.40496944 159.66858894 297.36415237 C156.05870323 293.7558287 152.44950384 290.14682553 148.84204674 286.53607368 C145.4568726 283.14802335 142.06928553 279.76240476 138.67977333 276.37869453 C137.43280704 275.13305657 136.18670216 273.88655563 134.9414978 272.63915634 C133.24976207 270.94471232 131.55501596 269.25333999 129.85942078 267.5627594 C129.36060306 267.06171096 128.86178534 266.56066252 128.34785193 266.04443079 C124.25379637 261.97404071 124.23570207 262.17171851 120.15561336 266.22944206 Z M-566.15576172 402.67456055 C-566.15576172 403.00456055 -566.15576172 403.33456055 -566.15576172 403.67456055 C-565.41806392 403.82820918 -564.68036612 403.98185781 -563.92031384 404.14016247 C-479.95869518 421.62787309 -395.99750013 439.11759512 -309.92773438 457.07958984 C-309.23010931 457.22517841 -308.53248425 457.37076699 -307.81371903 457.52076733 C-301.48983873 458.84051119 -295.16595894 460.16025747 -288.84209061 461.48005867 C-271.48082237 465.10336504 -254.11930408 468.72546892 -236.75723267 472.34492493 C-229.20492209 473.91936379 -221.65270321 475.49423948 -214.10070801 477.07019043 C-211.0959584 477.69715624 -208.09119643 478.32406277 -205.08642578 478.95092773 C-203.9734462 479.18312987 -203.9734462 479.18312987 -202.83798218 479.42002296 C-193.26005431 481.41800357 -183.68076447 483.4092893 -174.10003662 485.39379883 C-166.98524655 486.86753842 -159.87111116 488.34442446 -152.75732422 489.82299805 C-151.71863788 490.03881185 -151.71863788 490.03881185 -150.65896797 490.25898552 C-131.64574542 494.21081114 -112.6683147 498.29693998 -93.71659279 502.5358963 C-86.75964546 504.08719986 -79.79726312 505.61397577 -72.8349638 507.14105606 C-66.5059336 508.53309849 -60.18904265 509.96845756 -53.87841797 511.44156837 C-50.0443728 512.32560255 -46.20182493 513.16693355 -42.35586929 513.99744797 C-40.63161293 514.37882749 -38.91099783 514.77725812 -37.19552231 515.19636917 C-23.20267111 518.6026617 -11.6628846 516.7270678 2.24734688 513.49662018 C7.86635354 512.21241167 13.51630751 511.08478954 19.16426086 509.93603349 C22.60525609 509.23228853 26.04282099 508.51222903 29.48045349 507.79226685 C30.19080242 507.64357914 30.90115135 507.49489144 31.633026 507.34169805 C33.10311271 507.03395377 34.57318777 506.72615389 36.04325175 506.41830111 C39.96646555 505.59722262 43.89019426 504.77861123 47.81385803 503.95968628 C54.5899631 502.54509188 61.36576589 501.12905763 68.14135742 499.71200562 C78.05511169 497.63865945 87.96936821 495.56772301 97.88375926 493.49742424 C102.54016443 492.52508351 107.19655232 491.55266007 111.85293579 490.58021545 C113.24871839 490.28871897 113.24871839 490.28871897 114.67269862 489.99133366 C121.33520787 488.59987859 127.99762786 487.20799663 134.66000366 485.81590271 C160.0967179 480.50097176 185.53441788 475.19078866 210.97314453 469.88549805 C211.82392051 469.70806541 212.67469649 469.53063277 213.55125356 469.34782338 C221.23775488 467.74477886 228.92426831 466.14179245 236.61079884 464.53888798 C248.45408007 462.0691494 260.29726375 459.59894344 272.14038086 457.12841797 C272.97456854 456.95440346 273.80875622 456.78038895 274.66822231 456.60110128 C278.86625944 455.72537497 283.06429545 454.84964323 287.26233101 453.97390938 C310.32838429 449.1622105 333.39454894 444.35104649 356.46100998 439.54130268 C369.14013285 436.8974899 381.81918545 434.2533403 394.49818802 431.60895061 C401.82392604 430.08107788 409.14970133 428.55338433 416.47558594 427.0262146 C453.6076178 419.28549052 490.73080577 411.50395957 527.84423828 403.67456055 C527.84423828 403.34456055 527.84423828 403.01456055 527.84423828 402.67456055 C166.82423828 402.67456055 -194.19576172 402.67456055 -566.15576172 402.67456055 Z " fill="#000000" transform="translate(597.15576171875,3.325439453125)"/>
</svg>
