<svg width="32" height="32" viewBox="0 0 32 32" xmlns="http://www.w3.org/2000/svg">
  <defs>
    <linearGradient id="tGrad" x1="0%" y1="0%" x2="100%" y2="100%">
      <stop offset="0%" style="stop-color:#E91E63"/>
      <stop offset="100%" style="stop-color:#9C27B0"/>
    </linearGradient>
    <linearGradient id="rGrad" x1="0%" y1="0%" x2="100%" y2="100%">
      <stop offset="0%" style="stop-color:#FF6B35"/>
      <stop offset="100%" style="stop-color:#F7931E"/>
    </linearGradient>
    <linearGradient id="bGrad" x1="0%" y1="0%" x2="100%" y2="100%">
      <stop offset="0%" style="stop-color:#1E88E5"/>
      <stop offset="100%" style="stop-color:#00ACC1"/>
    </linearGradient>
    <linearGradient id="lGrad" x1="0%" y1="100%" x2="100%" y2="0%">
      <stop offset="0%" style="stop-color:#673AB7"/>
      <stop offset="100%" style="stop-color:#512DA8"/>
    </linearGradient>
  </defs>
  
  <g transform="translate(16,16) scale(0.35)">
    <path d="M 0,-30 L 23,-3 L 0,7 L -12,-12 Z" fill="url(#tGrad)" />
    <path d="M 23,-3 L 30,27 L 0,7 Z" fill="url(#rGrad)" />
    <path d="M 30,27 L -17,30 L 0,7 Z" fill="url(#bGrad)" />
    <path d="M -17,30 L -12,-12 L 0,7 Z" fill="url(#lGrad)" />
    <path d="M 0,-30 L 0,7" stroke="white" stroke-width="1" opacity="0.6" />
    <path d="M 23,-3 L 0,7" stroke="white" stroke-width="1" opacity="0.6" />
    <path d="M 30,27 L 0,7" stroke="white" stroke-width="1" opacity="0.6" />
    <path d="M -17,30 L 0,7" stroke="white" stroke-width="1" opacity="0.6" />
  </g>
</svg>