<svg xmlns="http://www.w3.org/2000/svg" width="465" height="428" viewBox="0 0 465 428">
<g>
<path d="M 269.37 367.20 C268.75,368.21 68.73,368.26 69.32,367.25 C72.64,361.60 94.91,322.77 99.58,314.50 C117.92,281.97 119.49,279.51 122.09,279.20 C123.68,279.02 125.32,279.70 126.55,281.06 C128.74,283.49 158.81,301.45 246.68,352.85 C259.43,360.30 269.65,366.76 269.37,367.20 Z" fill="rgba(0,110,206,1)"/>
<path d="M 22.85 400.99 C18.28,398.57 14.47,391.38 15.38,386.86 C16.16,382.97 29.93,358.00 31.30,358.00 C31.87,358.00 32.05,357.71 31.69,357.36 C30.92,356.59 34.07,351.00 35.27,351.00 C35.74,351.00 35.88,350.61 35.59,350.14 C35.01,349.21 42.61,335.98 44.41,334.77 C45.01,334.36 45.19,334.02 44.82,334.02 C43.94,334.00 85.79,260.75 87.15,259.91 C87.71,259.56 88.08,258.96 87.96,258.57 C87.75,257.87 98.33,239.08 123.49,195.50 C130.47,183.40 141.63,164.05 148.28,152.50 C154.93,140.95 160.66,131.27 161.01,131.00 C161.36,130.73 161.93,129.72 162.29,128.76 C162.93,127.03 203.80,55.97 213.27,40.13 C217.54,33.00 218.93,31.47 222.74,29.79 C225.68,28.49 228.28,28.02 230.35,28.41 C237.19,29.70 239.08,31.96 251.44,53.60 C258.00,65.09 268.51,83.28 274.78,94.00 C301.31,139.37 315.16,164.15 314.68,165.40 C314.39,166.13 311.09,168.44 307.33,170.53 C234.27,211.13 126.47,272.80 127.23,273.56 C127.44,273.78 130.07,273.02 133.06,271.87 C136.05,270.73 152.68,265.14 170.00,259.45 C187.32,253.76 232.31,238.73 269.97,226.05 C307.63,213.37 338.51,203.00 338.60,203.00 C338.74,203.00 345.76,215.04 358.08,236.41 C363.99,246.66 371.23,259.21 379.74,274.00 C390.98,293.54 399.63,308.61 406.20,320.10 C413.30,332.45 419.84,343.79 424.00,351.00 C432.10,365.02 439.73,378.49 440.96,380.91 C444.98,388.81 443.67,395.65 437.30,400.00 L 433.65 402.50 L 301.38 402.64 C273.90,402.85 229.32,402.97 178.19,402.96 C39.95,402.92 27.52,402.87 23.59,401.33 C23.31,401.22 23.08,401.11 22.85,400.99 ZM 269.37 367.20 C269.65,366.76 259.43,360.30 246.68,352.85 C158.81,301.45 128.74,283.49 126.55,281.06 C126.04,280.49 125.45,280.04 124.83,279.73 C123.52,279.49 122.42,279.34 121.66,279.28 C120.83,279.49 120.00,280.10 118.54,282.10 C116.45,285.29 113.08,290.89 109.52,297.14 C104.56,305.88 98.45,316.56 95.25,322.10 C87.41,335.85 73.07,360.83 69.65,366.68 C69.48,366.99 69.36,367.19 69.32,367.26 C69.35,367.32 70.10,367.38 71.49,367.43 C81.15,367.77 121.97,368.01 170.64,367.98 L 184.15 367.97 C228.62,367.92 269.09,367.66 269.37,367.20 Z" fill="rgba(0,188,231,1)"/>
<path d="M 22.85 400.98 C18.28,398.57 14.47,391.38 15.38,386.86 C16.16,382.97 29.93,358.00 31.30,358.00 C31.87,358.00 32.05,357.71 31.69,357.36 C30.92,356.59 34.07,351.00 35.27,351.00 C35.74,351.00 35.88,350.61 35.59,350.14 C35.01,349.21 42.61,335.98 44.41,334.77 C45.01,334.36 45.19,334.02 44.82,334.02 C43.94,334.00 85.79,260.75 87.15,259.91 C87.71,259.56 88.08,258.96 87.96,258.57 C87.87,258.27 89.67,254.83 93.62,247.74 C89.79,254.79 87.89,258.89 88.36,259.19 C88.95,259.57 89.93,259.47 90.55,258.96 C91.25,258.38 92.22,258.49 93.17,259.27 C94.87,260.66 99.00,267.61 99.00,269.07 C99.00,269.60 100.01,271.60 101.25,273.52 C104.08,277.92 112.42,281.04 116.87,279.35 C118.98,278.56 121.41,278.75 127.07,280.13 C127.39,280.21 127.70,280.29 128.03,280.37 C124.33,279.55 121.20,279.09 120.63,279.31 C119.94,279.57 114.95,287.60 109.52,297.14 C104.10,306.69 97.32,318.55 94.45,323.50 C91.58,328.45 84.85,340.15 79.50,349.50 C74.15,358.85 69.57,366.85 69.32,367.27 C69.06,367.69 114.66,368.01 170.64,367.98 L 272.43 367.93 L 287.46 376.62 C295.73,381.40 308.90,388.90 316.73,393.28 C324.55,397.67 330.72,401.65 330.42,402.13 C330.12,402.62 263.21,402.98 178.19,402.96 C30.40,402.91 26.41,402.86 22.85,400.98 ZM 300.03 322.86 C269.04,315.19 230.56,305.67 183.00,293.90 C177.32,292.50 171.69,291.11 166.32,289.78 C206.82,299.76 255.95,311.92 300.03,322.86 ZM 388.02 288.39 C402.26,313.18 411.44,329.24 417.05,339.23 C410.09,326.95 399.35,308.15 388.02,288.39 ZM 103.38 230.49 C108.62,221.31 115.27,209.73 123.49,195.50 C126.41,190.43 130.07,184.08 133.83,177.57 C123.40,195.68 111.74,215.95 103.38,230.49 ZM 160.91 131.12 C160.96,131.06 160.99,131.01 161.01,131.00 C161.36,130.73 161.93,129.72 162.29,128.76 C161.93,129.72 161.37,130.73 161.03,131.00 C161.00,131.03 160.96,131.07 160.91,131.12 Z" fill="rgba(83,55,173,1)"/>
<path d="M 123.76 279.39 C120.35,278.71 118.51,278.74 116.87,279.35 C112.42,281.04 104.08,277.92 101.25,273.52 C100.01,271.60 99.00,269.60 99.00,269.07 C99.00,267.61 94.87,260.66 93.17,259.27 C92.22,258.49 91.25,258.38 90.55,258.96 C89.93,259.47 88.95,259.57 88.36,259.19 C87.68,258.76 91.98,250.33 99.92,236.50 C106.97,224.24 117.72,205.54 128.09,187.54 C126.83,189.77 126.00,191.30 126.00,191.42 C126.00,191.62 126.70,192.05 127.55,192.38 C128.56,192.77 128.85,192.57 128.40,191.83 C127.96,191.13 128.13,190.96 128.85,191.40 C129.48,191.80 130.00,192.77 130.00,193.56 C130.00,194.35 130.45,195.00 131.00,195.00 C131.55,195.00 132.00,195.89 132.00,196.97 C132.00,198.06 133.20,201.54 134.66,204.72 C138.49,213.03 139.97,217.19 139.98,219.73 C139.99,220.96 141.36,223.44 143.02,225.23 C144.68,227.03 145.92,228.04 145.77,227.47 C145.62,226.90 146.85,225.03 148.50,223.32 C150.15,221.61 152.29,219.15 153.27,217.85 C155.82,214.45 149.37,226.60 136.73,249.00 C130.68,259.73 124.47,270.75 122.93,273.51 L 120.13 278.52 L 123.76 279.39 ZM 418.00 352.37 C415.80,351.67 360.76,337.93 295.81,321.81 C303.72,323.77 311.95,325.81 320.50,327.92 C371.65,340.58 415.52,351.59 418.00,352.37 ZM 131.28 182.01 C144.57,158.91 156.50,138.20 158.08,135.50 C159.24,133.50 160.45,131.65 160.91,131.12 C160.05,132.30 154.46,141.79 148.01,153.00 C141.56,164.21 134.27,176.85 131.28,182.01 Z" fill="rgba(130,39,142,1)"/>
<path d="M 162.55 128.23 C161.98,129.72 163.26,128.46 166.11,124.50 C167.92,121.98 170.15,120.00 171.17,120.00 C172.18,120.00 173.00,119.47 173.00,118.83 C173.00,117.16 174.34,118.74 174.64,120.76 C174.78,121.70 175.37,122.62 175.95,122.82 C176.53,123.01 177.00,123.80 177.00,124.58 C177.00,125.36 177.45,126.00 178.00,126.00 C178.55,126.00 179.00,126.90 179.00,128.00 C179.00,129.10 179.41,130.00 179.90,130.00 C180.40,130.00 181.83,132.47 183.08,135.49 C185.56,141.46 186.57,142.12 192.32,141.56 C194.77,141.32 196.31,141.64 196.62,142.45 C196.89,143.15 193.99,149.07 190.19,155.61 C182.65,168.58 145.07,234.38 129.85,261.21 C131.97,257.43 134.36,253.19 136.73,249.00 C149.37,226.60 155.82,214.45 153.27,217.85 C152.29,219.15 150.15,221.61 148.50,223.32 C146.85,225.03 145.62,226.90 145.77,227.47 C145.92,228.04 144.68,227.03 143.02,225.23 C141.36,223.44 139.99,220.96 139.98,219.73 C139.97,217.19 138.49,213.03 134.66,204.72 C133.20,201.54 132.00,198.06 132.00,196.97 C132.00,195.89 131.55,195.00 131.00,195.00 C130.45,195.00 130.00,194.35 130.00,193.56 C130.00,192.77 129.48,191.80 128.85,191.40 C128.13,190.96 127.96,191.13 128.40,191.83 C128.85,192.57 128.56,192.77 127.55,192.38 C126.70,192.05 126.00,191.62 126.00,191.42 C126.00,191.22 128.17,187.34 130.82,182.78 C133.48,178.23 141.21,164.82 148.01,153.00 C154.81,141.18 160.66,131.27 161.01,131.00 C161.36,130.73 161.93,129.72 162.29,128.76 C162.31,128.69 162.40,128.51 162.55,128.23 ZM 201.40 135.50 C200.68,138.32 197.40,142.45 196.73,141.37 C196.42,140.87 197.46,138.90 199.04,136.98 C201.01,134.59 201.75,134.13 201.40,135.50 ZM 218.40 32.68 C216.68,34.51 214.79,37.57 211.21,43.66 C206.97,50.88 188.53,82.76 175.06,106.13 C188.08,83.39 207.18,50.33 213.27,40.13 C215.52,36.37 216.97,34.17 218.40,32.68 ZM 122.93 273.51 L 120.16 278.53 L 120.13 278.52 L 122.93 273.51 ZM 229.55 28.30 C227.63,28.15 225.31,28.66 222.71,29.80 C222.72,29.80 222.73,29.79 222.74,29.79 C225.31,28.65 227.63,28.15 229.55,28.30 Z" fill="rgba(178,25,118,1)"/>
<path d="M 201.40 135.50 C201.75,134.13 201.01,134.59 199.04,136.98 C197.46,138.90 196.42,140.87 196.73,141.37 C197.13,142.02 198.47,140.79 199.64,139.10 C197.03,143.65 194.48,148.09 192.00,152.42 C194.87,147.25 196.84,143.03 196.62,142.45 C196.31,141.64 194.77,141.32 192.32,141.56 C186.57,142.12 185.56,141.46 183.08,135.49 C181.83,132.47 180.40,130.00 179.90,130.00 C179.41,130.00 179.00,129.10 179.00,128.00 C179.00,126.90 178.55,126.00 178.00,126.00 C177.45,126.00 177.00,125.36 177.00,124.58 C177.00,123.80 176.53,123.01 175.95,122.82 C175.37,122.62 174.78,121.70 174.64,120.76 C174.34,118.74 173.00,117.16 173.00,118.83 C173.00,119.47 172.18,120.00 171.17,120.00 C170.15,120.00 167.92,121.98 166.11,124.50 C162.03,130.17 161.17,130.30 164.35,124.75 C175.39,105.49 205.62,53.18 211.21,43.66 C217.52,32.91 218.59,31.63 222.69,29.81 C225.67,28.50 228.28,28.02 230.35,28.41 C237.19,29.70 239.08,31.96 251.44,53.60 C258.00,65.09 268.51,83.28 274.78,94.00 C301.31,139.37 315.16,164.15 314.68,165.40 C314.39,166.13 311.09,168.44 307.33,170.53 C291.89,179.11 274.90,188.63 257.71,198.32 C273.35,189.29 284.00,182.79 284.00,182.21 C284.00,180.69 281.34,175.74 267.32,151.18 C262.19,142.20 258.00,134.74 258.00,134.59 C258.00,134.31 248.23,117.31 237.40,98.75 C233.62,92.29 230.30,87.00 230.02,87.00 C229.73,87.00 219.63,104.22 207.57,125.25 C205.30,129.22 203.07,133.11 200.88,136.93 C201.10,136.44 201.29,135.95 201.40,135.50 ZM 127.23 273.56 C126.68,273.02 148.84,260.06 200.19,230.94 C158.99,254.44 126.81,273.15 127.23,273.56 ZM 188.71 158.16 C173.27,185.12 160.42,207.56 150.36,225.19 C165.30,198.98 182.17,169.50 188.71,158.16 ZM 124.39 270.87 C124.36,270.92 124.33,270.97 124.31,271.02 L 120.20 278.54 L 120.16 278.53 L 123.75 272.02 C123.91,271.73 124.12,271.34 124.39,270.87 Z" fill="rgba(228,7,83,1)"/>
<path d="M 129.59 273.08 C124.63,274.91 121.99,276.11 121.04,277.01 L 124.31 271.02 C128.17,263.95 157.28,212.99 207.57,125.25 C219.63,104.22 229.73,87.00 230.02,87.00 C230.30,87.00 233.62,92.29 237.40,98.75 C248.23,117.31 258.00,134.31 258.00,134.59 C258.00,134.74 262.19,142.20 267.32,151.18 C281.34,175.74 284.00,180.69 284.00,182.21 C284.00,182.99 265.15,194.23 240.75,208.00 C160.36,253.37 126.56,272.89 127.23,273.56 C127.35,273.69 128.27,273.49 129.59,273.08 ZM 269.97 226.05 C232.31,238.73 187.32,253.78 170.00,259.49 C158.62,263.25 149.60,266.21 142.55,268.58 C149.64,266.18 159.69,262.83 170.00,259.45 C187.32,253.76 232.31,238.73 269.97,226.05 ZM 120.62 277.77 C120.62,277.78 120.62,277.79 120.63,277.80 C120.73,278.51 122.25,279.00 124.61,279.59 L 120.20 278.54 L 120.62 277.77 Z" fill="rgba(253,48,71,1)"/>
<path d="M 418.00 352.37 C415.52,351.59 371.65,340.58 320.50,327.92 C192.36,296.21 136.85,282.50 127.83,280.36 C115.16,277.34 113.70,278.06 170.00,259.49 C187.32,253.78 232.31,238.73 269.97,226.05 C307.63,213.37 338.51,203.00 338.60,203.00 C339.12,203.00 425.00,352.58 425.00,353.48 C425.00,354.27 422.95,353.95 418.00,352.37 Z" fill="rgba(253,162,19,1)"/>
</g>
</svg>