<svg width="200" height="200" viewBox="0 0 200 200" xmlns="http://www.w3.org/2000/svg">
  <defs>
    <!-- Gradient definitions for the Prism logo -->
    <linearGradient id="topGradient" x1="0%" y1="0%" x2="100%" y2="100%">
      <stop offset="0%" style="stop-color:#E91E63;stop-opacity:1" />
      <stop offset="100%" style="stop-color:#9C27B0;stop-opacity:1" />
    </linearGradient>
    
    <linearGradient id="rightGradient" x1="0%" y1="0%" x2="100%" y2="100%">
      <stop offset="0%" style="stop-color:#FF6B35;stop-opacity:1" />
      <stop offset="100%" style="stop-color:#F7931E;stop-opacity:1" />
    </linearGradient>
    
    <linearGradient id="bottomGradient" x1="0%" y1="0%" x2="100%" y2="100%">
      <stop offset="0%" style="stop-color:#1E88E5;stop-opacity:1" />
      <stop offset="100%" style="stop-color:#00ACC1;stop-opacity:1" />
    </linearGradient>
    
    <linearGradient id="leftGradient" x1="0%" y1="100%" x2="100%" y2="0%">
      <stop offset="0%" style="stop-color:#673AB7;stop-opacity:1" />
      <stop offset="100%" style="stop-color:#512DA8;stop-opacity:1" />
    </linearGradient>
  </defs>
  
  <!-- Prism triangular logo based on the provided image -->
  <g transform="translate(100,100) scale(0.8)">
    <!-- Main triangular shape divided into segments -->
    
    <!-- Top segment (pink to purple) -->
    <path d="M 0,-90 L 70,-10 L 0,20 L -35,-35 Z" fill="url(#topGradient)" />
    
    <!-- Right segment (orange to yellow) -->
    <path d="M 70,-10 L 90,80 L 0,20 Z" fill="url(#rightGradient)" />
    
    <!-- Bottom segment (blue to cyan) -->
    <path d="M 90,80 L -50,90 L 0,20 Z" fill="url(#bottomGradient)" />
    
    <!-- Left segment (deep purple) -->
    <path d="M -50,90 L -35,-35 L 0,20 Z" fill="url(#leftGradient)" />
    
    <!-- Center white separator lines -->
    <path d="M 0,-90 L 0,20" stroke="white" stroke-width="2" opacity="0.8" />
    <path d="M 70,-10 L 0,20" stroke="white" stroke-width="2" opacity="0.8" />
    <path d="M 90,80 L 0,20" stroke="white" stroke-width="2" opacity="0.8" />
    <path d="M -50,90 L 0,20" stroke="white" stroke-width="2" opacity="0.8" />
  </g>
</svg>